<mxfile host="65bd71144e">
    <diagram id="avuX6tN8_coUhezxWiyo" name="Page-1">
        <mxGraphModel dx="1093" dy="464" grid="1" gridSize="10" guides="1" tooltips="1" connect="1" arrows="0" fold="1" page="1" pageScale="1" pageWidth="827" pageHeight="1169" math="0" shadow="0">
            <root>
                <mxCell id="0"/>
                <mxCell id="1" parent="0"/>
                <mxCell id="9" style="edgeStyle=none;html=1;exitX=0.5;exitY=1;exitDx=0;exitDy=0;entryX=0.791;entryY=-0.002;entryDx=0;entryDy=0;entryPerimeter=0;fontSize=16;fontColor=#FFFF00;" parent="1" source="2" target="7" edge="1">
                    <mxGeometry relative="1" as="geometry"/>
                </mxCell>
                <mxCell id="10" style="edgeStyle=none;html=1;exitX=0.5;exitY=1;exitDx=0;exitDy=0;entryX=0.269;entryY=-0.008;entryDx=0;entryDy=0;entryPerimeter=0;fontSize=16;fontColor=#FFFF00;" parent="1" source="2" target="8" edge="1">
                    <mxGeometry relative="1" as="geometry"/>
                </mxCell>
                <mxCell id="2" value="&lt;b&gt;PROGETTO LARAVEL&lt;/b&gt;&lt;font color=&quot;#ffff00&quot;&gt;&lt;br&gt;&lt;/font&gt;" style="rounded=0;whiteSpace=wrap;html=1;" parent="1" vertex="1">
                    <mxGeometry x="250" y="40" width="390" height="40" as="geometry"/>
                </mxCell>
                <mxCell id="13" style="edgeStyle=none;html=1;exitX=0.5;exitY=1;exitDx=0;exitDy=0;fontSize=12;fontColor=#FFFFFF;entryX=0.5;entryY=1;entryDx=0;entryDy=0;" parent="1" source="7" target="25" edge="1">
                    <mxGeometry relative="1" as="geometry">
                        <mxPoint x="200" y="1120" as="targetPoint"/>
                    </mxGeometry>
                </mxCell>
                <mxCell id="7" value="&lt;h1&gt;&lt;font style=&quot;font-size: 16px&quot;&gt;SCAFFOLDING: Se inizializzo progetto&lt;/font&gt;&lt;/h1&gt;&lt;p&gt;Mi sposto nella cartella dove voglio creare il progetto (parent dir)&lt;/p&gt;&lt;p&gt;&lt;span&gt;&lt;font color=&quot;#ffff00&quot;&gt;composer create-project --prefer-dist laravel/laravel:^7&amp;nbsp; nome_progetto&lt;/font&gt;&lt;/span&gt;&lt;br&gt;&lt;/p&gt;&lt;p&gt;creo db&lt;span&gt;&lt;font color=&quot;#ffff00&quot;&gt;&lt;br&gt;&lt;/font&gt;&lt;/span&gt;&lt;/p&gt;&lt;p&gt;apro la cartella del progetto in vscode&lt;span&gt;&#9;&lt;/span&gt;&lt;span&gt;&#9;&lt;/span&gt;&lt;font color=&quot;#ffff33&quot;&gt;code -r .&lt;/font&gt;&lt;/p&gt;&lt;p&gt;&lt;font color=&quot;#ffff00&quot;&gt;composer require doctrine/dbal:^2&lt;/font&gt;&lt;span style=&quot;color: rgb(255 , 255 , 0)&quot;&gt;&amp;nbsp;&lt;/span&gt;&lt;span style=&quot;color: rgb(255 , 255 , 0)&quot;&gt;&lt;/span&gt;&lt;font color=&quot;#ff3333&quot;&gt;non funziona&lt;/font&gt;&lt;font color=&quot;#ffff33&quot;&gt;&lt;br&gt;&lt;/font&gt;&lt;/p&gt;&lt;p&gt;&lt;font color=&quot;#ffff00&quot;&gt;composer require doctrine/dbal:^2 se non funziona cancella composer.lock e vendor, scrivi nel composer.json a riga 12 (&quot;doctrine/dbal&quot;:&quot;^2&quot;,)&lt;/font&gt;&lt;span style=&quot;color: rgb(255 , 255 , 0)&quot;&gt;&amp;nbsp;usa comando composer install&lt;/span&gt;&lt;font color=&quot;#ffff33&quot;&gt;&lt;br&gt;&lt;/font&gt;&lt;/p&gt;&lt;p&gt;&lt;font color=&quot;#ffff00&quot;&gt;composer remove fzaninotto/faker&lt;/font&gt;&lt;/p&gt;&lt;p&gt;&lt;font color=&quot;#ffff00&quot;&gt;composer require fakerphp/faker&lt;/font&gt;&lt;span style=&quot;color: rgb(255 , 255 , 0)&quot;&gt;&#9;&lt;/span&gt;&lt;span style=&quot;color: rgb(255 , 255 , 0)&quot;&gt;&#9;&lt;/span&gt;&lt;/p&gt;&lt;p&gt;installo i pacchetti necessari:&lt;/p&gt;&lt;p&gt;&lt;font color=&quot;#ffff00&quot;&gt;composer require laravel/ui:^2.4&lt;/font&gt;&lt;span style=&quot;color: rgb(255 , 255 , 0)&quot;&gt;&#9;&lt;/span&gt;preparazione insta framework&lt;font color=&quot;#ffff00&quot;&gt;&lt;span&gt;&lt;/span&gt;&lt;span&gt;&lt;/span&gt;&lt;/font&gt;&lt;/p&gt;&lt;p&gt;&lt;font color=&quot;#ffff00&quot;&gt;php artisan ui vue --auth&lt;/font&gt;&lt;span style=&quot;color: rgb(255 , 255 , 0)&quot;&gt;&#9;&lt;/span&gt;&lt;span style=&quot;color: rgb(255 , 255 , 0)&quot;&gt;&#9;&lt;/span&gt;scaffolding Vue&lt;font color=&quot;#ffff00&quot;&gt;&lt;br&gt;&lt;/font&gt;&lt;/p&gt;&lt;p&gt;&lt;font color=&quot;#ffff00&quot;&gt;php artisan vendor:publish --tag=laravel-errors&lt;/font&gt;&lt;span style=&quot;color: rgb(255 , 255 , 0)&quot;&gt;&amp;nbsp;&lt;/span&gt;template page errori&lt;br&gt;&lt;/p&gt;&lt;p&gt;installo pacchetti node:&amp;nbsp;&lt;font color=&quot;#ffff00&quot;&gt;npm install&lt;/font&gt;&lt;br&gt;&lt;/p&gt;&lt;p&gt;aggiungo&amp;nbsp;&lt;font color=&quot;#ffff00&quot;&gt;composer.lock&lt;/font&gt;&amp;nbsp;e&amp;nbsp;&lt;font color=&quot;#ffff00&quot;&gt;package-lock.json&lt;/font&gt;&amp;nbsp;a gitignore&lt;font color=&quot;#ffff00&quot;&gt;&lt;br&gt;&lt;/font&gt;&lt;/p&gt;&lt;p&gt;&lt;span&gt;modifico file env con root e localhost&lt;/span&gt;&lt;/p&gt;&lt;p&gt;&lt;span&gt;e poi comando&amp;nbsp;&lt;/span&gt;&lt;/p&gt;&lt;span style=&quot;color: rgb(255 , 255 , 0)&quot;&gt;php artisan config:clear&lt;br&gt;&lt;br&gt;&lt;/span&gt;&lt;span style=&quot;color: rgb(255 , 255 , 0)&quot;&gt;npm install --save @fortawesome/fontawesome-free&lt;/span&gt;&lt;span style=&quot;color: rgb(255 , 255 , 0)&quot;&gt;&lt;br&gt;&lt;/span&gt;&lt;br&gt;modifico il webpack.mix&lt;br&gt;&lt;div&gt;.options({&lt;/div&gt;&lt;div&gt;&amp;nbsp; &amp;nbsp; &amp;nbsp; &amp;nbsp; &lt;span&gt;&#9;&#9;&#9;&lt;/span&gt;processCssUrls: false&lt;/div&gt;&lt;div&gt;&amp;nbsp; &amp;nbsp; &lt;span&gt;&#9;&#9;&#9;&#9;&lt;/span&gt;}).copyDirectory( './node_modules/@fortawesome/fontawesome-free/webfonts/*', 'public/fonts/font-awesome' );&lt;/div&gt;&lt;div&gt;&lt;br&gt;&lt;/div&gt;&lt;div&gt;importare in app.scss librerie&lt;/div&gt;&lt;div&gt;&lt;div&gt;@import '~bootstrap/scss/bootstrap';&lt;/div&gt;&lt;div&gt;&lt;br&gt;&lt;/div&gt;&lt;div&gt;&lt;span&gt;&#9;&#9;&#9;&#9;&lt;/span&gt;$fa-font-path: &quot;../fonts/font-awesome&quot; !default;&lt;/div&gt;&lt;div&gt;&lt;br&gt;&lt;/div&gt;&lt;div&gt;&lt;span&gt;&#9;&#9;&#9;&#9;&lt;/span&gt;@import '~@fortawesome/fontawesome-free/scss/fontawesome';&lt;/div&gt;&lt;div&gt;&lt;span&gt;&#9;&#9;&#9;&#9;&lt;/span&gt;@import '~@fortawesome/fontawesome-free/scss/regular';&lt;/div&gt;&lt;div&gt;&lt;span&gt;&#9;&#9;&#9;&#9;&lt;/span&gt;@import '~@fortawesome/fontawesome-free/scss/solid';&lt;/div&gt;&lt;div&gt;&lt;span&gt;&#9;&#9;&#9;&#9;&lt;/span&gt;@import '~@fortawesome/fontawesome-free/scss/brands';&lt;/div&gt;&lt;/div&gt;&lt;div&gt;&lt;br&gt;&lt;/div&gt;&lt;p&gt;lancio &lt;font color=&quot;#ffff00&quot;&gt;php artisan serve&lt;/font&gt; e &lt;font color=&quot;#ffff00&quot;&gt;npm run watch&lt;/font&gt; verifico che tutto funzioni&lt;br&gt;&lt;/p&gt;&lt;p&gt;ricordati di lanciare &lt;font color=&quot;#ffff00&quot;&gt;php artisan migrate&lt;/font&gt;&lt;/p&gt;&lt;p&gt;inizializzo repo git&lt;br&gt;&lt;/p&gt;&lt;p&gt;&lt;font color=&quot;#ffff00&quot;&gt;&lt;br&gt;&lt;/font&gt;&lt;/p&gt;" style="text;html=1;strokeColor=#FFFFFF;fillColor=none;spacing=5;spacingTop=-20;whiteSpace=wrap;overflow=hidden;rounded=0;fontSize=12;fontColor=#FFFFFF;" parent="1" vertex="1">
                    <mxGeometry x="20" y="90" width="380" height="940" as="geometry"/>
                </mxCell>
                <mxCell id="45" style="edgeStyle=none;html=1;exitX=0.5;exitY=1;exitDx=0;exitDy=0;entryX=0;entryY=1;entryDx=0;entryDy=0;fontColor=#FFFFFF;" parent="1" source="8" target="25" edge="1">
                    <mxGeometry relative="1" as="geometry"/>
                </mxCell>
                <mxCell id="8" value="&lt;h1&gt;&lt;font style=&quot;font-size: 16px&quot;&gt;SCAFFOLDING: Se clono repo&lt;/font&gt;&lt;/h1&gt;&lt;p&gt;&lt;span&gt;apro vscode e clono repo&lt;/span&gt;&lt;br&gt;&lt;/p&gt;&lt;p&gt;creo db&lt;span&gt;&lt;br&gt;&lt;/span&gt;&lt;/p&gt;&lt;p&gt;copio .env.example e lo rinomino in .env e genero la key:&lt;span&gt;&lt;br&gt;&lt;/span&gt;&lt;/p&gt;&lt;p&gt;modifico file env con impostazioni del mio db&lt;br&gt;&lt;/p&gt;&lt;p&gt;&lt;font color=&quot;#ffff00&quot;&gt;php artisan key:generate&lt;/font&gt;&lt;/p&gt;&lt;p&gt;&lt;span style=&quot;color: rgb(255 , 255 , 0)&quot;&gt;php artisan config:clear&lt;/span&gt;&lt;br style=&quot;color: rgb(255 , 255 , 0)&quot;&gt;&lt;/p&gt;&lt;p&gt;se presenti cancella composer-lock e package-lock.json&lt;/p&gt;&lt;p&gt;&lt;span&gt;installo i pacchetti necessari:&lt;/span&gt;&lt;/p&gt;&lt;p&gt;&lt;span&gt;&lt;font color=&quot;#ffff00&quot;&gt;composer install&lt;/font&gt;&lt;/span&gt;&lt;/p&gt;&lt;p&gt;&lt;span&gt;installo pacchetti node: &lt;/span&gt;&lt;font color=&quot;#ffff00&quot;&gt;npm install&lt;/font&gt;&lt;br&gt;&lt;/p&gt;&lt;p&gt;se ci sono già migration o seeder li lancio&lt;font color=&quot;#ffff00&quot;&gt;&lt;br&gt;&lt;/font&gt;&lt;/p&gt;&lt;p&gt;&lt;span&gt;lancio &lt;/span&gt;&lt;font color=&quot;#ffff00&quot;&gt;php artisan serve&lt;/font&gt;&lt;span&gt; e verifico che tutto funzioni&lt;/span&gt;&lt;br&gt;&lt;/p&gt;&lt;p&gt;&lt;span&gt;creo eventuale branch su git&lt;/span&gt;&lt;br&gt;&lt;/p&gt;&lt;p&gt;&lt;font color=&quot;#ffff00&quot;&gt;&lt;br&gt;&lt;/font&gt;&lt;/p&gt;" style="text;html=1;strokeColor=#FFFFFF;fillColor=none;spacing=5;spacingTop=-20;whiteSpace=wrap;overflow=hidden;rounded=0;fontSize=12;fontColor=#FFFFFF;" parent="1" vertex="1">
                    <mxGeometry x="450" y="130" width="330" height="480" as="geometry"/>
                </mxCell>
                <mxCell id="64" style="edgeStyle=none;html=1;exitX=0.5;exitY=1;exitDx=0;exitDy=0;entryX=0.531;entryY=-0.034;entryDx=0;entryDy=0;entryPerimeter=0;fontSize=13;fontColor=#FFFFFF;" parent="1" source="12" target="YnNii3DhfhroFcoP4JHG-25" edge="1">
                    <mxGeometry relative="1" as="geometry"/>
                </mxCell>
                <mxCell id="12" value="&lt;h1&gt;&lt;font style=&quot;font-size: 16px ; line-height: 1&quot;&gt;Definisco le mie entità:&lt;/font&gt;&lt;/h1&gt;&lt;div&gt;&lt;font style=&quot;font-size: 16px ; line-height: 1&quot;&gt;&lt;u&gt;Creo Model e Migration&lt;/u&gt;&lt;/font&gt;&lt;/div&gt;&lt;p&gt;&lt;font style=&quot;font-size: 12px&quot;&gt;Per ogni entità creo il relativo model e la migration es. entità post:&lt;/font&gt;&lt;/p&gt;&lt;p&gt;&lt;font style=&quot;font-size: 12px&quot; color=&quot;#ffff00&quot;&gt;php artisan make:model Post&lt;/font&gt;&lt;/p&gt;&lt;p&gt;&lt;font style=&quot;font-size: 12px&quot; color=&quot;#ffff00&quot;&gt;php artisan make:migration create_posts_table&lt;/font&gt;&lt;/p&gt;&lt;p&gt;&lt;font style=&quot;font-size: 12px&quot;&gt;edito le migration create e i model e poi lancio le migration&lt;/font&gt;&lt;/p&gt;&lt;p&gt;&lt;font style=&quot;font-size: 12px&quot;&gt;creare nei campi lo slug&lt;span&gt;&#9;&lt;span&gt;&#9;&lt;/span&gt;&lt;span&gt;&#9;&lt;/span&gt;&lt;/span&gt;&lt;/font&gt;&lt;span style=&quot;font-family: &amp;#34;consolas&amp;#34; , &amp;#34;courier new&amp;#34; , monospace ; font-size: 14px ; color: rgb(156 , 220 , 254)&quot;&gt;$table&lt;/span&gt;&lt;span style=&quot;background-color: rgb(30 , 30 , 30) ; color: rgb(212 , 212 , 212) ; font-family: &amp;#34;consolas&amp;#34; , &amp;#34;courier new&amp;#34; , monospace ; font-size: 14px&quot;&gt;-&amp;gt;&lt;/span&gt;&lt;span style=&quot;font-family: &amp;#34;consolas&amp;#34; , &amp;#34;courier new&amp;#34; , monospace ; font-size: 14px ; color: rgb(220 , 220 , 170)&quot;&gt;string&lt;/span&gt;&lt;span style=&quot;background-color: rgb(30 , 30 , 30) ; color: rgb(212 , 212 , 212) ; font-family: &amp;#34;consolas&amp;#34; , &amp;#34;courier new&amp;#34; , monospace ; font-size: 14px&quot;&gt;(&lt;/span&gt;&lt;span style=&quot;font-family: &amp;#34;consolas&amp;#34; , &amp;#34;courier new&amp;#34; , monospace ; font-size: 14px ; color: rgb(206 , 145 , 120)&quot;&gt;'slug'&lt;/span&gt;&lt;span style=&quot;background-color: rgb(30 , 30 , 30) ; color: rgb(212 , 212 , 212) ; font-family: &amp;#34;consolas&amp;#34; , &amp;#34;courier new&amp;#34; , monospace ; font-size: 14px&quot;&gt;, &lt;/span&gt;&lt;span style=&quot;font-family: &amp;#34;consolas&amp;#34; , &amp;#34;courier new&amp;#34; , monospace ; font-size: 14px ; color: rgb(181 , 206 , 168)&quot;&gt;150&lt;/span&gt;&lt;span style=&quot;background-color: rgb(30 , 30 , 30) ; color: rgb(212 , 212 , 212) ; font-family: &amp;#34;consolas&amp;#34; , &amp;#34;courier new&amp;#34; , monospace ; font-size: 14px&quot;&gt;)-&amp;gt;&lt;/span&gt;&lt;span style=&quot;font-family: &amp;#34;consolas&amp;#34; , &amp;#34;courier new&amp;#34; , monospace ; font-size: 14px ; color: rgb(220 , 220 , 170)&quot;&gt;unique&lt;/span&gt;&lt;span style=&quot;background-color: rgb(30 , 30 , 30) ; color: rgb(212 , 212 , 212) ; font-family: &amp;#34;consolas&amp;#34; , &amp;#34;courier new&amp;#34; , monospace ; font-size: 14px&quot;&gt;();&lt;/span&gt;&lt;/p&gt;&lt;p&gt;&lt;font style=&quot;font-size: 12px&quot; color=&quot;#ffff00&quot;&gt;php artisan migrate&amp;nbsp; &lt;/font&gt;&lt;font style=&quot;font-size: 12px&quot;&gt;(&lt;/font&gt;&lt;span style=&quot;font-size: 12px&quot;&gt;verifico che le tabelle siano state create correttamente sul db)&lt;/span&gt;&lt;/p&gt;&lt;p&gt;&lt;span style=&quot;font-size: 12px&quot;&gt;nel Model aggiungere proprietà protected &lt;span&gt;&#9;&lt;/span&gt;FILLABLE o un GUARDED&lt;/span&gt;&lt;/p&gt;&lt;p&gt;&lt;br&gt;&lt;/p&gt;" style="text;html=1;strokeColor=default;fillColor=none;spacing=5;spacingTop=-20;whiteSpace=wrap;overflow=hidden;rounded=0;fontSize=16;fontColor=#FFFFFF;container=1;" parent="1" vertex="1">
                    <mxGeometry x="20" y="3060" width="510" height="370" as="geometry"/>
                </mxCell>
                <mxCell id="16" value="&lt;span style=&quot;text-align: left&quot;&gt;php artisan make:model Post -m&lt;/span&gt;" style="text;html=1;strokeColor=none;fillColor=none;align=center;verticalAlign=middle;whiteSpace=wrap;rounded=0;fontSize=12;fontColor=#FFFF00;" parent="12" vertex="1">
                    <mxGeometry x="300" y="140.0004081632653" width="224.4" height="52.857142857142854" as="geometry"/>
                </mxCell>
                <mxCell id="15" value="" style="shape=curlyBracket;whiteSpace=wrap;html=1;rounded=1;flipH=1;fontSize=12;fontColor=#FFFFFF;strokeColor=default;size=0.5;" parent="12" vertex="1">
                    <mxGeometry x="280" y="140" width="30.6" height="61.84" as="geometry"/>
                </mxCell>
                <mxCell id="17" value="&lt;div style=&quot;text-align: left ; font-size: 10px&quot;&gt;&lt;br&gt;&lt;/div&gt;&lt;div style=&quot;text-align: left ; font-size: 10px&quot;&gt;&lt;b&gt;Esempio metodo up di una migration:&lt;/b&gt;&lt;/div&gt;&lt;div style=&quot;text-align: left ; font-size: 10px&quot;&gt;public function up()&lt;span style=&quot;font-size: 10px&quot;&gt;&amp;nbsp;{&lt;/span&gt;&lt;/div&gt;&lt;div style=&quot;text-align: left ; font-size: 10px&quot;&gt;&amp;nbsp; &amp;nbsp; &amp;nbsp; &amp;nbsp; Schema::create('flights', function (Blueprint $table) {&lt;/div&gt;&lt;div style=&quot;text-align: left ; font-size: 10px&quot;&gt;&amp;nbsp; &amp;nbsp; &amp;nbsp; &amp;nbsp; &amp;nbsp; &amp;nbsp; $table-&amp;gt;id();&lt;/div&gt;&lt;div style=&quot;text-align: left ; font-size: 10px&quot;&gt;&amp;nbsp; &amp;nbsp; &amp;nbsp; &amp;nbsp; &amp;nbsp; &amp;nbsp; $table-&amp;gt;string('name');&lt;/div&gt;&lt;div style=&quot;text-align: left ; font-size: 10px&quot;&gt;&amp;nbsp; &amp;nbsp; &amp;nbsp; &amp;nbsp; &amp;nbsp; &amp;nbsp; $table-&amp;gt;string('airline');&lt;/div&gt;&lt;div style=&quot;text-align: left ; font-size: 10px&quot;&gt;&amp;nbsp; &amp;nbsp; &amp;nbsp; &amp;nbsp; &amp;nbsp; &amp;nbsp; $table-&amp;gt;timestamps();&lt;/div&gt;&lt;div style=&quot;text-align: left ; font-size: 10px&quot;&gt;&amp;nbsp; &amp;nbsp; &amp;nbsp; &amp;nbsp; });&lt;/div&gt;&lt;div style=&quot;text-align: left ; font-size: 10px&quot;&gt;&amp;nbsp; &amp;nbsp; }&lt;/div&gt;" style="text;html=1;strokeColor=#B09500;fillColor=#e3c800;align=center;verticalAlign=middle;whiteSpace=wrap;rounded=0;fontSize=10;fontColor=#000000;" parent="1" vertex="1">
                    <mxGeometry x="560" y="3070" width="260" height="120" as="geometry"/>
                </mxCell>
                <mxCell id="22" value="&lt;h1&gt;&lt;font style=&quot;font-size: 16px&quot;&gt;Popolo il DB creo SEEDER&lt;/font&gt;&lt;/h1&gt;&lt;p&gt;Posso popolare il mio db manualmente o con dei seeder:&lt;/p&gt;&lt;p&gt;&lt;font color=&quot;#ffff00&quot; style=&quot;font-size: 12px&quot;&gt;php artisan make:seeder PostSeeder&amp;nbsp;&lt;/font&gt; &amp;nbsp; (esempio per tabella Posts)&lt;/p&gt;&lt;p&gt;importare Faker e model&amp;nbsp;&lt;/p&gt;&lt;p&gt;nella funzione creare un ciclo&lt;/p&gt;&lt;p&gt;nel campo slug aggiungere metodo&lt;/p&gt;&lt;div style=&quot;color: rgb(212 , 212 , 212) ; background-color: rgb(30 , 30 , 30) ; font-family: &amp;#34;consolas&amp;#34; , &amp;#34;courier new&amp;#34; , monospace ; font-size: 14px ; line-height: 19px&quot;&gt;&lt;span style=&quot;color: #9cdcfe&quot;&gt;$newCar&lt;/span&gt;-&amp;gt;&lt;span style=&quot;color: #9cdcfe&quot;&gt;slug&lt;/span&gt; = &lt;span style=&quot;color: #4ec9b0&quot;&gt;Str&lt;/span&gt;::&lt;span style=&quot;color: #dcdcaa&quot;&gt;of&lt;/span&gt;(&lt;span style=&quot;color: #9cdcfe&quot;&gt;$newCar&lt;/span&gt;-&amp;gt;&lt;span style=&quot;color: #9cdcfe&quot;&gt;name&lt;/span&gt;)-&amp;gt;&lt;span style=&quot;color: #dcdcaa&quot;&gt;slug&lt;/span&gt;(&lt;span style=&quot;color: #ce9178&quot;&gt;'-'&lt;/span&gt;);&lt;/div&gt;&lt;p&gt;e importare&amp;nbsp;&lt;span style=&quot;white-space: pre&quot;&gt;&#9;&lt;/span&gt;&lt;span style=&quot;font-family: &amp;#34;consolas&amp;#34; , &amp;#34;courier new&amp;#34; , monospace ; font-size: 14px ; color: rgb(86 , 156 , 214)&quot;&gt;use&lt;/span&gt;&lt;span style=&quot;background-color: rgb(30 , 30 , 30) ; color: rgb(212 , 212 , 212) ; font-family: &amp;#34;consolas&amp;#34; , &amp;#34;courier new&amp;#34; , monospace ; font-size: 14px&quot;&gt; Illuminate\Support\&lt;/span&gt;&lt;span style=&quot;font-family: &amp;#34;consolas&amp;#34; , &amp;#34;courier new&amp;#34; , monospace ; font-size: 14px ; color: rgb(78 , 201 , 176)&quot;&gt;Str&lt;/span&gt;&lt;span style=&quot;background-color: rgb(30 , 30 , 30) ; color: rgb(212 , 212 , 212) ; font-family: &amp;#34;consolas&amp;#34; , &amp;#34;courier new&amp;#34; , monospace ; font-size: 14px&quot;&gt;;&lt;/span&gt;&lt;/p&gt;&lt;p&gt;completo il seeder creato&lt;/p&gt;&lt;p&gt;lancio il seeder:&amp;nbsp;&lt;font color=&quot;#ffff00&quot;&gt;&lt;span style=&quot;font-size: 0.8rem ; word-spacing: normal&quot;&gt;php artisan db&lt;/span&gt;&lt;span class=&quot;token punctuation&quot; style=&quot;font-size: 0.8rem ; word-spacing: normal ; box-sizing: border-box ; border-width: 0px ; border-style: solid ; border-color: rgb(231 , 232 , 242)&quot;&gt;:&lt;/span&gt;&lt;span style=&quot;font-size: 0.8rem ; word-spacing: normal&quot;&gt;seed &lt;/span&gt;&lt;span class=&quot;token operator&quot; style=&quot;font-size: 0.8rem ; word-spacing: normal ; box-sizing: border-box ; border-width: 0px ; border-style: solid ; border-color: rgb(231 , 232 , 242)&quot;&gt;--&lt;/span&gt;&lt;span class=&quot;token keyword&quot; style=&quot;font-size: 0.8rem ; word-spacing: normal ; box-sizing: border-box ; border-width: 0px ; border-style: solid ; border-color: rgb(231 , 232 , 242)&quot;&gt;class&lt;/span&gt;&lt;span class=&quot;token operator&quot; style=&quot;font-size: 0.8rem ; word-spacing: normal ; box-sizing: border-box ; border-width: 0px ; border-style: solid ; border-color: rgb(231 , 232 , 242)&quot;&gt;=&lt;/span&gt;&lt;span style=&quot;font-size: 0.8rem ; word-spacing: normal&quot;&gt;PostSeeder&lt;/span&gt;&lt;/font&gt;&lt;/p&gt;&lt;p&gt;&lt;span style=&quot;font-size: 0.8rem ; word-spacing: normal&quot;&gt;verifico che dati siano stati creati correttamente sul db&lt;/span&gt;&lt;/p&gt;&lt;p&gt;&lt;span style=&quot;font-size: 0.8rem ; word-spacing: normal&quot;&gt;si fa un merge tutti i collaboratori e si lancia tutti il seeder&lt;/span&gt;&lt;/p&gt;&lt;font color=&quot;#ffff00&quot;&gt;&lt;span style=&quot;font-size: 0px&quot;&gt;%3CmxGraphModel%3E%3Croot%3E%3CmxCell%20id%3D%220%22%2F%3E%3CmxCell%20id%3D%221%22%20parent%3D%220%22%2F%3E%3CmxCell%20id%3D%222%22%20value%3D%22%26lt%3Bh1%26gt%3B%26lt%3Bfont%20style%3D%26quot%3Bfont-size%3A%2016px%26quot%3B%26gt%3BSe%20clono%20repo%26lt%3B%2Ffont%26gt%3B%26lt%3B%2Fh1%26gt%3B%26lt%3Bp%26gt%3B%26lt%3Bspan%26gt%3Bapro%20vscode%20e%20clono%20repo%26lt%3B%2Fspan%26gt%3B%26lt%3Bbr%26gt%3B%26lt%3B%2Fp%26gt%3B%26lt%3Bp%26gt%3Bcreo%20file%20env%20e%20genero%20la%20key%3A%26lt%3Bspan%26gt%3B%26lt%3Bbr%26gt%3B%26lt%3B%2Fspan%26gt%3B%26lt%3B%2Fp%26gt%3B%26lt%3Bp%26gt%3B%26lt%3Bfont%20color%3D%26quot%3B%23ffff00%26quot%3B%26gt%3Bphp%20artisan%20key%3Agenerate%26lt%3B%2Ffont%26gt%3B%26lt%3Bbr%26gt%3B%26lt%3B%2Fp%26gt%3B%26lt%3Bp%26gt%3Bcreo%20db%26lt%3B%2Fp%26gt%3B%26lt%3Bp%26gt%3Bmodifico%20file%20env%20con%20impostazioni%20mie%26lt%3B%2Fp%26gt%3B%26lt%3Bp%26gt%3B%26lt%3Bspan%26gt%3Binstallo%20i%20pacchetti%20necessari%3A%26lt%3B%2Fspan%26gt%3B%26lt%3B%2Fp%26gt%3B%26lt%3Bp%26gt%3B%26lt%3Bspan%26gt%3B%26lt%3Bfont%20color%3D%26quot%3B%23ffff00%26quot%3B%26gt%3Bcomposer%20install%26lt%3B%2Ffont%26gt%3B%26lt%3B%2Fspan%26gt%3B%26lt%3B%2Fp%26gt%3B%26lt%3Bp%26gt%3B%26lt%3Bspan%26gt%3Binstallo%20pacchetti%20node%3A%20%26lt%3B%2Fspan%26gt%3B%26lt%3Bfont%20color%3D%26quot%3B%23ffff00%26quot%3B%26gt%3Bnpm%20install%26lt%3B%2Ffont%26gt%3B%26lt%3Bbr%26gt%3B%26lt%3B%2Fp%26gt%3B%26lt%3Bp%26gt%3B%26lt%3Bspan%26gt%3Blancio%20%26lt%3B%2Fspan%26gt%3B%26lt%3Bfont%20color%3D%26quot%3B%23ffff00%26quot%3B%26gt%3Bphp%20artisan%20serve%26lt%3B%2Ffont%26gt%3B%26lt%3Bspan%26gt%3B%20e%20verifico%20che%20tutto%20funzioni%26lt%3B%2Fspan%26gt%3B%26lt%3Bbr%26gt%3B%26lt%3B%2Fp%26gt%3B%26lt%3Bp%26gt%3Bcreo%20eventuale%20branch%20su%20git%26lt%3B%2Fp%26gt%3B%26lt%3Bp%26gt%3B%26lt%3Bfont%20color%3D%26quot%3B%23ffff00%26quot%3B%26gt%3B%26lt%3Bbr%26gt%3B%26lt%3B%2Ffont%26gt%3B%26lt%3B%2Fp%26gt%3B%22%20style%3D%22text%3Bhtml%3D1%3BstrokeColor%3D%23FFFFFF%3BfillColor%3Dnone%3Bspacing%3D5%3BspacingTop%3D-20%3BwhiteSpace%3Dwrap%3Boverflow%3Dhidden%3Brounded%3D0%3BfontSize%3D12%3BfontColor%3D%23FFFFFF%3B%22%20vertex%3D%221%22%20parent%3D%221%22%3E%3CmxGeometry%20x%3D%22450%22%20y%3D%22130%22%20width%3D%22330%22%20height%3D%22320%22%20as%3D%22geometry%22%2F%3E%3C%2FmxCell%3E%3C%2Froot%3E%3C%2FmxGraphModel%3E&lt;/span&gt;&lt;span style=&quot;font-size: 0px&quot;&gt;%3CmxGraphModel%3E%3Croot%3E%3CmxCell%20id%3D%220%22%2F%3E%3CmxCell%20id%3D%221%22%20parent%3D%220%22%2F%3E%3CmxCell%20id%3D%222%22%20value%3D%22%26lt%3Bh1%26gt%3B%26lt%3Bfont%20style%3D%26quot%3Bfont-size%3A%2016px%26quot%3B%26gt%3BSe%20clono%20repo%26lt%3B%2Ffont%26gt%3B%26lt%3B%2Fh1%26gt%3B%26lt%3Bp%26gt%3B%26lt%3Bspan%26gt%3Bapro%20vscode%20e%20clono%20repo%26lt%3B%2Fspan%26gt%3B%26lt%3Bbr%26gt%3B%26lt%3B%2Fp%26gt%3B%26lt%3Bp%26gt%3Bcreo%20file%20env%20e%20genero%20la%20key%3A%26lt%3Bspan%26gt%3B%26lt%3Bbr%26gt%3B%26lt%3B%2Fspan%26gt%3B%26lt%3B%2Fp%26gt%3B%26lt%3Bp%26gt%3B%26lt%3Bfont%20color%3D%26quot%3B%23ffff00%26quot%3B%26gt%3Bphp%20artisan%20key%3Agenerate%26lt%3B%2Ffont%26gt%3B%26lt%3Bbr%26gt%3B%26lt%3B%2Fp%26gt%3B%26lt%3Bp%26gt%3Bcreo%20db%26lt%3B%2Fp%26gt%3B%26lt%3Bp%26gt%3Bmodifico%20file%20env%20con%20impostazioni%20mie%26lt%3B%2Fp%26gt%3B%26lt%3Bp%26gt%3B%26lt%3Bspan%26gt%3Binstallo%20i%20pacchetti%20necessari%3A%26lt%3B%2Fspan%26gt%3B%26lt%3B%2Fp%26gt%3B%26lt%3Bp%26gt%3B%26lt%3Bspan%26gt%3B%26lt%3Bfont%20color%3D%26quot%3B%23ffff00%26quot%3B%26gt%3Bcomposer%20install%26lt%3B%2Ffont%26gt%3B%26lt%3B%2Fspan%26gt%3B%26lt%3B%2Fp%26gt%3B%26lt%3Bp%26gt%3B%26lt%3Bspan%26gt%3Binstallo%20pacchetti%20node%3A%20%26lt%3B%2Fspan%26gt%3B%26lt%3Bfont%20color%3D%26quot%3B%23ffff00%26quot%3B%26gt%3Bnpm%20install%26lt%3B%2Ffont%26gt%3B%26lt%3Bbr%26gt%3B%26lt%3B%2Fp%26gt%3B%26lt%3Bp%26gt%3B%26lt%3Bspan%26gt%3Blancio%20%26lt%3B%2Fspan%26gt%3B%26lt%3Bfont%20color%3D%26quot%3B%23ffff00%26quot%3B%26gt%3Bphp%20artisan%20serve%26lt%3B%2Ffont%26gt%3B%26lt%3Bspan%26gt%3B%20e%20verifico%20che%20tutto%20funzioni%26lt%3B%2Fspan%26gt%3B%26lt%3Bbr%26gt%3B%26lt%3B%2Fp%26gt%3B%26lt%3Bp%26gt%3Bcreo%20eventuale%20branch%20su%20git%26lt%3B%2Fp%26gt%3B%26lt%3Bp%26gt%3B%26lt%3Bfont%20color%3D%26quot%3B%23ffff00%26quot%3B%26gt%3B%26lt%3Bbr%26gt%3B%26lt%3B%2Ffont%26gt%3B%26lt%3B%2Fp%26gt%3B%22%20style%3D%22text%3Bhtml%3D1%3BstrokeColor%3D%23FFFFFF%3BfillColor%3Dnone%3Bspacing%3D5%3BspacingTop%3D-20%3BwhiteSpace%3Dwrap%3Boverflow%3Dhidden%3Brounded%3D0%3BfontSize%3D12%3BfontColor%3D%23FFFFFF%3B%22%20vertex%3D%221%22%20parent%3D%221%22%3E%3CmxGeometry%20x%3D%22450%22%20y%3D%22130%22%20width%3D%22330%22%20height%3D%22320%22%20as%3D%22geometry%22%2F%3E%3C%2FmxCell%3E%3C%2Froot%3E%3C%2FmxGraphModel%3E&lt;/span&gt;&lt;/font&gt;&lt;p&gt;&lt;font color=&quot;#ffff00&quot;&gt;&amp;nbsp;&lt;/font&gt;&lt;/p&gt;" style="text;html=1;strokeColor=#FFFFFF;fillColor=none;spacing=5;spacingTop=-20;whiteSpace=wrap;overflow=hidden;rounded=0;fontSize=12;fontColor=#FFFFFF;" parent="1" vertex="1">
                    <mxGeometry x="25" y="5015" width="500" height="390" as="geometry"/>
                </mxCell>
                <mxCell id="24" value="&lt;b&gt;Esempio metodo run di un seeder:&lt;/b&gt;&lt;div style=&quot;font-size: 10px&quot;&gt;public function run(Faker $faker)&lt;/div&gt;&lt;div style=&quot;font-size: 10px&quot;&gt;&amp;nbsp; &amp;nbsp; {&lt;/div&gt;&lt;div style=&quot;font-size: 10px&quot;&gt;&amp;nbsp; &amp;nbsp; &amp;nbsp; &amp;nbsp;&amp;nbsp;&lt;span&gt;&amp;nbsp; &amp;nbsp; for ($i = 0; $i &amp;lt; 200; $i++) {&lt;/span&gt;&lt;/div&gt;&lt;div style=&quot;font-size: 10px&quot;&gt;&amp;nbsp; &amp;nbsp; &amp;nbsp; &amp;nbsp; &amp;nbsp; &amp;nbsp; $newPost = new Post();&lt;/div&gt;&lt;div style=&quot;font-size: 10px&quot;&gt;&amp;nbsp; &amp;nbsp; &amp;nbsp; &amp;nbsp; &amp;nbsp; &amp;nbsp; $newPost-&amp;gt;title = $faker-&amp;gt;sentence();&lt;/div&gt;&lt;div style=&quot;font-size: 10px&quot;&gt;&amp;nbsp; &amp;nbsp; &amp;nbsp; &amp;nbsp; &amp;nbsp; &amp;nbsp; $newPost-&amp;gt;content = $faker-&amp;gt;paragraph(50);&lt;/div&gt;&lt;div style=&quot;font-size: 10px&quot;&gt;&amp;nbsp; &amp;nbsp; &amp;nbsp; &amp;nbsp; &amp;nbsp; &amp;nbsp; $newPost-&amp;gt;published = $faker-&amp;gt;boolean();&lt;span&gt;&amp;nbsp; &amp;nbsp; &amp;nbsp; &amp;nbsp; &amp;nbsp; &amp;nbsp;&amp;nbsp;&lt;/span&gt;&lt;/div&gt;&lt;div style=&quot;font-size: 10px&quot;&gt;&amp;nbsp; &amp;nbsp; &amp;nbsp; &amp;nbsp; &amp;nbsp; &amp;nbsp; $newPost-&amp;gt;imageSrc = $faker-&amp;gt;imageUrl();&lt;/div&gt;&lt;div style=&quot;font-size: 10px&quot;&gt;&amp;nbsp; &amp;nbsp; &amp;nbsp; &amp;nbsp; &amp;nbsp; &amp;nbsp; $newPost-&amp;gt;save();&lt;/div&gt;&lt;div style=&quot;font-size: 10px&quot;&gt;&amp;nbsp; &amp;nbsp; &amp;nbsp; &amp;nbsp; }&lt;/div&gt;&lt;div style=&quot;font-size: 10px&quot;&gt;&amp;nbsp; &amp;nbsp; }&lt;/div&gt;" style="text;html=1;strokeColor=#B09500;fillColor=#e3c800;align=left;verticalAlign=middle;whiteSpace=wrap;rounded=0;fontFamily=Helvetica;fontSize=10;fontColor=#000000;" parent="1" vertex="1">
                    <mxGeometry x="560" y="5110" width="260" height="200" as="geometry"/>
                </mxCell>
                <mxCell id="75" style="edgeStyle=none;html=1;exitX=0.5;exitY=1;exitDx=0;exitDy=0;fontSize=13;fontColor=#FFFFFF;" parent="1" source="YnNii3DhfhroFcoP4JHG-25" edge="1">
                    <mxGeometry relative="1" as="geometry">
                        <mxPoint x="260" y="3960" as="targetPoint"/>
                    </mxGeometry>
                </mxCell>
                <mxCell id="YnNii3DhfhroFcoP4JHG-25" value="&lt;h1&gt;&lt;font style=&quot;font-size: 16px&quot;&gt;Creo i controller:&lt;/font&gt;&lt;/h1&gt;&lt;p&gt;Creo i controller per le mie entità facendo attenzione ad eventuali &lt;b&gt;&lt;u&gt;namespace&lt;/u&gt;&lt;/b&gt;&lt;/p&gt;&lt;p&gt;&lt;font color=&quot;#ffff00&quot; style=&quot;font-size: 12px&quot;&gt;php artisan make:controller PostController&amp;nbsp;&lt;/font&gt; &amp;nbsp; (controller semplice)&lt;/p&gt;&lt;p&gt;&lt;font color=&quot;#ffff00&quot;&gt;php artisan make:controller PostController&amp;nbsp; --resource&lt;/font&gt;&amp;nbsp;&amp;nbsp; (con resource)&lt;br&gt;&lt;/p&gt;&lt;p&gt;&lt;font color=&quot;#ffff00&quot;&gt;php artisan make:controller Admin/PostController&amp;nbsp;--resource&lt;/font&gt; (controller con namespace)&lt;/p&gt;&lt;p style=&quot;font-size: 16px&quot;&gt;&lt;font style=&quot;font-size: 13px&quot;&gt;aggiungere in web.php rotta creata da Controller&lt;/font&gt;&lt;/p&gt;&lt;p style=&quot;font-size: 16px&quot;&gt;&lt;font style=&quot;font-size: 13px&quot;&gt;&lt;/font&gt;&lt;/p&gt;&lt;div style=&quot;color: rgb(212 , 212 , 212) ; background-color: rgb(30 , 30 , 30) ; font-family: &amp;#34;consolas&amp;#34; , &amp;#34;courier new&amp;#34; , monospace ; font-size: 14px ; line-height: 19px&quot;&gt;&lt;span style=&quot;color: rgb(78 , 201 , 176)&quot;&gt;Route&lt;/span&gt;::&lt;span style=&quot;color: rgb(220 , 220 , 170)&quot;&gt;resource&lt;/span&gt;(&lt;span style=&quot;color: rgb(206 , 145 , 120)&quot;&gt;'/cars'&lt;/span&gt;,&amp;nbsp;&lt;span style=&quot;color: rgb(206 , 145 , 120)&quot;&gt;'CarController'&lt;/span&gt;);&lt;/div&gt;&lt;p style=&quot;font-size: 16px&quot;&gt;&lt;font style=&quot;font-size: 13px&quot;&gt;controllo lista rotte&amp;nbsp;&lt;font color=&quot;#ffff00&quot;&gt;php artisan route:list&lt;/font&gt;&lt;/font&gt;&lt;/p&gt;&lt;p&gt;&lt;span style=&quot;font-size: 13px&quot;&gt;return le view nelle funzioni del controller (index,show,create,edit)&lt;/span&gt;&lt;/p&gt;&lt;p&gt;&lt;span style=&quot;font-size: 13px&quot;&gt;importo il model&lt;span&gt;&#9;&lt;span style=&quot;white-space: pre&quot;&gt;&#9;&lt;/span&gt;&lt;/span&gt;&lt;/span&gt;&lt;span style=&quot;font-family: &amp;#34;consolas&amp;#34; , &amp;#34;courier new&amp;#34; , monospace ; font-size: 14px ; color: rgb(86 , 156 , 214)&quot;&gt;use&lt;/span&gt;&lt;span style=&quot;background-color: rgb(30 , 30 , 30) ; color: rgb(212 , 212 , 212) ; font-family: &amp;#34;consolas&amp;#34; , &amp;#34;courier new&amp;#34; , monospace ; font-size: 14px&quot;&gt; App\&lt;/span&gt;&lt;span style=&quot;font-family: &amp;#34;consolas&amp;#34; , &amp;#34;courier new&amp;#34; , monospace ; font-size: 14px ; color: rgb(78 , 201 , 176)&quot;&gt;Car&lt;/span&gt;&lt;span style=&quot;background-color: rgb(30 , 30 , 30) ; color: rgb(212 , 212 , 212) ; font-family: &amp;#34;consolas&amp;#34; , &amp;#34;courier new&amp;#34; , monospace ; font-size: 14px&quot;&gt;;&lt;/span&gt;&lt;/p&gt;&lt;font color=&quot;#ffff00&quot;&gt;&lt;span style=&quot;font-size: 0px&quot;&gt;&lt;br&gt;&lt;/span&gt;&lt;/font&gt;" style="text;html=1;strokeColor=#FFFFFF;fillColor=none;spacing=5;spacingTop=-20;whiteSpace=wrap;overflow=hidden;rounded=0;fontSize=12;fontColor=#FFFFFF;" parent="1" vertex="1">
                    <mxGeometry x="20" y="3590" width="480" height="320" as="geometry"/>
                </mxCell>
                <mxCell id="YnNii3DhfhroFcoP4JHG-27" value="&lt;h1&gt;&lt;font style=&quot;font-size: 16px&quot;&gt;Creo i necessari template blade:&lt;/font&gt;&lt;/h1&gt;&lt;p&gt;Creo i necessari template seguendo dove possibile la logica laravel (index,,show, create, edit) ragguppandoli nelle relative cartelle&amp;nbsp; rispettando i namespace e le entità (es. admin/posts/index.blade.php)&lt;/p&gt;&lt;p&gt;estendiamo nei template il nostro layout admin e aggiungere quello che vogliamo nello yield.&amp;nbsp; nota: nella parte di amministrazione (index) sono ottime le tabelle&lt;/p&gt;&lt;p&gt;lanciamo i vari merge&lt;/p&gt;&lt;p&gt;&lt;br&gt;&lt;/p&gt;&lt;font color=&quot;#ffff00&quot;&gt;&lt;span style=&quot;font-size: 0px&quot;&gt;%3CmxGraphModel%3E%3Croot%3E%3CmxCell%20id%3D%220%22%2F%3E%3CmxCell%20id%3D%221%22%20parent%3D%220%22%2F%3E%3CmxCell%20id%3D%222%22%20value%3D%22%26lt%3Bh1%26gt%3B%26lt%3Bfont%20style%3D%26quot%3Bfont-size%3A%2016px%26quot%3B%26gt%3BSe%20clono%20repo%26lt%3B%2Ffont%26gt%3B%26lt%3B%2Fh1%26gt%3B%26lt%3Bp%26gt%3B%26lt%3Bspan%26gt%3Bapro%20vscode%20e%20clono%20repo%26lt%3B%2Fspan%26gt%3B%26lt%3Bbr%26gt%3B%26lt%3B%2Fp%26gt%3B%26lt%3Bp%26gt%3Bcreo%20file%20env%20e%20genero%20la%20key%3A%26lt%3Bspan%26gt%3B%26lt%3Bbr%26gt%3B%26lt%3B%2Fspan%26gt%3B%26lt%3B%2Fp%26gt%3B%26lt%3Bp%26gt%3B%26lt%3Bfont%20color%3D%26quot%3B%23ffff00%26quot%3B%26gt%3Bphp%20artisan%20key%3Agenerate%26lt%3B%2Ffont%26gt%3B%26lt%3Bbr%26gt%3B%26lt%3B%2Fp%26gt%3B%26lt%3Bp%26gt%3Bcreo%20db%26lt%3B%2Fp%26gt%3B%26lt%3Bp%26gt%3Bmodifico%20file%20env%20con%20impostazioni%20mie%26lt%3B%2Fp%26gt%3B%26lt%3Bp%26gt%3B%26lt%3Bspan%26gt%3Binstallo%20i%20pacchetti%20necessari%3A%26lt%3B%2Fspan%26gt%3B%26lt%3B%2Fp%26gt%3B%26lt%3Bp%26gt%3B%26lt%3Bspan%26gt%3B%26lt%3Bfont%20color%3D%26quot%3B%23ffff00%26quot%3B%26gt%3Bcomposer%20install%26lt%3B%2Ffont%26gt%3B%26lt%3B%2Fspan%26gt%3B%26lt%3B%2Fp%26gt%3B%26lt%3Bp%26gt%3B%26lt%3Bspan%26gt%3Binstallo%20pacchetti%20node%3A%20%26lt%3B%2Fspan%26gt%3B%26lt%3Bfont%20color%3D%26quot%3B%23ffff00%26quot%3B%26gt%3Bnpm%20install%26lt%3B%2Ffont%26gt%3B%26lt%3Bbr%26gt%3B%26lt%3B%2Fp%26gt%3B%26lt%3Bp%26gt%3B%26lt%3Bspan%26gt%3Blancio%20%26lt%3B%2Fspan%26gt%3B%26lt%3Bfont%20color%3D%26quot%3B%23ffff00%26quot%3B%26gt%3Bphp%20artisan%20serve%26lt%3B%2Ffont%26gt%3B%26lt%3Bspan%26gt%3B%20e%20verifico%20che%20tutto%20funzioni%26lt%3B%2Fspan%26gt%3B%26lt%3Bbr%26gt%3B%26lt%3B%2Fp%26gt%3B%26lt%3Bp%26gt%3Bcreo%20eventuale%20branch%20su%20git%26lt%3B%2Fp%26gt%3B%26lt%3Bp%26gt%3B%26lt%3Bfont%20color%3D%26quot%3B%23ffff00%26quot%3B%26gt%3B%26lt%3Bbr%26gt%3B%26lt%3B%2Ffont%26gt%3B%26lt%3B%2Fp%26gt%3B%22%20style%3D%22text%3Bhtml%3D1%3BstrokeColor%3D%23FFFFFF%3BfillColor%3Dnone%3Bspacing%3D5%3BspacingTop%3D-20%3BwhiteSpace%3Dwrap%3Boverflow%3Dhidden%3Brounded%3D0%3BfontSize%3D12%3BfontColor%3D%23FFFFFF%3B%22%20vertex%3D%221%22%20parent%3D%221%22%3E%3CmxGeometry%20x%3D%22450%22%20y%3D%22130%22%20width%3D%22330%22%20height%3D%22320%22%20as%3D%22geometry%22%2F%3E%3C%2FmxCell%3E%3C%2Froot%3E%3C%2FmxGraphModel%3E&lt;/span&gt;&lt;span style=&quot;font-size: 0px&quot;&gt;%3CmxGraphModel%3E%3Croot%3E%3CmxCell%20id%3D%220%22%2F%3E%3CmxCell%20id%3D%221%22%20parent%3D%220%22%2F%3E%3CmxCell%20id%3D%222%22%20value%3D%22%26lt%3Bh1%26gt%3B%26lt%3Bfont%20style%3D%26quot%3Bfont-size%3A%2016px%26quot%3B%26gt%3BSe%20clono%20repo%26lt%3B%2Ffont%26gt%3B%26lt%3B%2Fh1%26gt%3B%26lt%3Bp%26gt%3B%26lt%3Bspan%26gt%3Bapro%20vscode%20e%20clono%20repo%26lt%3B%2Fspan%26gt%3B%26lt%3Bbr%26gt%3B%26lt%3B%2Fp%26gt%3B%26lt%3Bp%26gt%3Bcreo%20file%20env%20e%20genero%20la%20key%3A%26lt%3Bspan%26gt%3B%26lt%3Bbr%26gt%3B%26lt%3B%2Fspan%26gt%3B%26lt%3B%2Fp%26gt%3B%26lt%3Bp%26gt%3B%26lt%3Bfont%20color%3D%26quot%3B%23ffff00%26quot%3B%26gt%3Bphp%20artisan%20key%3Agenerate%26lt%3B%2Ffont%26gt%3B%26lt%3Bbr%26gt%3B%26lt%3B%2Fp%26gt%3B%26lt%3Bp%26gt%3Bcreo%20db%26lt%3B%2Fp%26gt%3B%26lt%3Bp%26gt%3Bmodifico%20file%20env%20con%20impostazioni%20mie%26lt%3B%2Fp%26gt%3B%26lt%3Bp%26gt%3B%26lt%3Bspan%26gt%3Binstallo%20i%20pacchetti%20necessari%3A%26lt%3B%2Fspan%26gt%3B%26lt%3B%2Fp%26gt%3B%26lt%3Bp%26gt%3B%26lt%3Bspan%26gt%3B%26lt%3Bfont%20color%3D%26quot%3B%23ffff00%26quot%3B%26gt%3Bcomposer%20install%26lt%3B%2Ffont%26gt%3B%26lt%3B%2Fspan%26gt%3B%26lt%3B%2Fp%26gt%3B%26lt%3Bp%26gt%3B%26lt%3Bspan%26gt%3Binstallo%20pacchetti%20node%3A%20%26lt%3B%2Fspan%26gt%3B%26lt%3Bfont%20color%3D%26quot%3B%23ffff00%26quot%3B%26gt%3Bnpm%20install%26lt%3B%2Ffont%26gt%3B%26lt%3Bbr%26gt%3B%26lt%3B%2Fp%26gt%3B%26lt%3Bp%26gt%3B%26lt%3Bspan%26gt%3Blancio%20%26lt%3B%2Fspan%26gt%3B%26lt%3Bfont%20color%3D%26quot%3B%23ffff00%26quot%3B%26gt%3Bphp%20artisan%20serve%26lt%3B%2Ffont%26gt%3B%26lt%3Bspan%26gt%3B%20e%20verifico%20che%20tutto%20funzioni%26lt%3B%2Fspan%26gt%3B%26lt%3Bbr%26gt%3B%26lt%3B%2Fp%26gt%3B%26lt%3Bp%26gt%3Bcreo%20eventuale%20branch%20su%20git%26lt%3B%2Fp%26gt%3B%26lt%3Bp%26gt%3B%26lt%3Bfont%20color%3D%26quot%3B%23ffff00%26quot%3B%26gt%3B%26lt%3Bbr%26gt%3B%26lt%3B%2Ffont%26gt%3B%26lt%3B%2Fp%26gt%3B%22%20style%3D%22text%3Bhtml%3D1%3BstrokeColor%3D%23FFFFFF%3BfillColor%3Dnone%3Bspacing%3D5%3BspacingTop%3D-20%3BwhiteSpace%3Dwrap%3Boverflow%3Dhidden%3Brounded%3D0%3BfontSize%3D12%3BfontColor%3D%23FFFFFF%3B%22%20vertex%3D%221%22%20parent%3D%221%22%3E%3CmxGeometry%20x%3D%22450%22%20y%3D%22130%22%20width%3D%22330%22%20height%3D%22320%22%20as%3D%22geometry%22%2F%3E%3C%2FmxCell%3E%3C%2Froot%3E%3C%2FmxGraphModel%3E&lt;/span&gt;&lt;/font&gt;&lt;p&gt;&lt;font color=&quot;#ffff00&quot;&gt;&amp;nbsp;&lt;/font&gt;&lt;/p&gt;" style="text;html=1;strokeColor=#FFFFFF;fillColor=none;spacing=5;spacingTop=-20;whiteSpace=wrap;overflow=hidden;rounded=0;fontSize=12;fontColor=#FFFFFF;" parent="1" vertex="1">
                    <mxGeometry x="25" y="4710" width="480" height="220" as="geometry"/>
                </mxCell>
                <mxCell id="YnNii3DhfhroFcoP4JHG-29" value="&lt;h1&gt;&lt;font style=&quot;font-size: 16px&quot;&gt;VERIFICO le rotte:&lt;/font&gt;&lt;/h1&gt;&lt;p&gt;&lt;/p&gt;Modifico il file routes/web.php ed eventualmente il file routes/api.php&lt;br&gt;verifico le rotte create &lt;font color=&quot;#ffff00&quot;&gt;php artisan route:list&lt;br&gt;&lt;/font&gt;verifico da browser tutti i percorsi&lt;br&gt;&lt;span style=&quot;color: rgb(255 , 255 , 0) ; font-size: 0px&quot;&gt;%3CmxGraphModel%3E%3Croot%3E%3CmxCell%20id%3D%220%22%2F%3E%3CmxCell%20id%3D%221%22%20parent%3D%220%22%2F%3E%3CmxCell%20id%3D%222%22%20value%3D%22%26lt%3Bh1%26gt%3B%26lt%3Bfont%20style%3D%26quot%3Bfont-size%3A%2016px%26quot%3B%26gt%3BSe%20clono%20repo%26lt%3B%2Ffont%26gt%3B%26lt%3B%2Fh1%26gt%3B%26lt%3Bp%26gt%3B%26lt%3Bspan%26gt%3Bapro%20vscode%20e%20clono%20repo%26lt%3B%2Fspan%26gt%3B%26lt%3Bbr%26gt%3B%26lt%3B%2Fp%26gt%3B%26lt%3Bp%26gt%3Bcreo%20file%20env%20e%20genero%20la%20key%3A%26lt%3Bspan%26gt%3B%26lt%3Bbr%26gt%3B%26lt%3B%2Fspan%26gt%3B%26lt%3B%2Fp%26gt%3B%26lt%3Bp%26gt%3B%26lt%3Bfont%20color%3D%26quot%3B%23ffff00%26quot%3B%26gt%3Bphp%20artisan%20key%3Agenerate%26lt%3B%2Ffont%26gt%3B%26lt%3Bbr%26gt%3B%26lt%3B%2Fp%26gt%3B%26lt%3Bp%26gt%3Bcreo%20db%26lt%3B%2Fp%26gt%3B%26lt%3Bp%26gt%3Bmodifico%20file%20env%20con%20impostazioni%20mie%26lt%3B%2Fp%26gt%3B%26lt%3Bp%26gt%3B%26lt%3Bspan%26gt%3Binstallo%20i%20pacchetti%20necessari%3A%26lt%3B%2Fspan%26gt%3B%26lt%3B%2Fp%26gt%3B%26lt%3Bp%26gt%3B%26lt%3Bspan%26gt%3B%26lt%3Bfont%20color%3D%26quot%3B%23ffff00%26quot%3B%26gt%3Bcomposer%20install%26lt%3B%2Ffont%26gt%3B%26lt%3B%2Fspan%26gt%3B%26lt%3B%2Fp%26gt%3B%26lt%3Bp%26gt%3B%26lt%3Bspan%26gt%3Binstallo%20pacchetti%20node%3A%20%26lt%3B%2Fspan%26gt%3B%26lt%3Bfont%20color%3D%26quot%3B%23ffff00%26quot%3B%26gt%3Bnpm%20install%26lt%3B%2Ffont%26gt%3B%26lt%3Bbr%26gt%3B%26lt%3B%2Fp%26gt%3B%26lt%3Bp%26gt%3B%26lt%3Bspan%26gt%3Blancio%20%26lt%3B%2Fspan%26gt%3B%26lt%3Bfont%20color%3D%26quot%3B%23ffff00%26quot%3B%26gt%3Bphp%20artisan%20serve%26lt%3B%2Ffont%26gt%3B%26lt%3Bspan%26gt%3B%20e%20verifico%20che%20tutto%20funzioni%26lt%3B%2Fspan%26gt%3B%26lt%3Bbr%26gt%3B%26lt%3B%2Fp%26gt%3B%26lt%3Bp%26gt%3Bcreo%20eventuale%20branch%20su%20git%26lt%3B%2Fp%26gt%3B%26lt%3Bp%26gt%3B%26lt%3Bfont%20color%3D%26quot%3B%23ffff00%26quot%3B%26gt%3B%26lt%3Bbr%26gt%3B%26lt%3B%2Ffont%26gt%3B%26lt%3B%2Fp%26gt%3B%22%20style%3D%22text%3Bhtml%3D1%3BstrokeColor%3D%23FFFFFF%3BfillColor%3Dnone%3Bspacing%3D5%3BspacingTop%3D-20%3BwhiteSpace%3Dwrap%3Boverflow%3Dhidden%3Brounded%3D0%3BfontSize%3D12%3BfontColor%3D%23FFFFFF%3B%22%20vertex%3D%221%22%20parent%3D%221%22%3E%3CmxGeometry%20x%3D%22450%22%20y%3D%22130%22%20width%3D%22330%22%20height%3D%22320%22%20as%3D%22geometry%22%2F%3E%3C%2FmxCell%3E%3C%2Froot%3E%3C%2FmxGraphModel%3E&lt;/span&gt;&lt;span style=&quot;color: rgb(255 , 255 , 0) ; font-size: 0px&quot;&gt;%3CmxGraphModel%3E%3Croot%3E%3CmxCell%20id%3D%220%22%2F%3E%3CmxCell%20id%3D%221%22%20parent%3D%220%22%2F%3E%3CmxCell%20id%3D%222%22%20value%3D%22%26lt%3Bh1%26gt%3B%26lt%3Bfont%20style%3D%26quot%3Bfont-size%3A%2016px%26quot%3B%26gt%3BSe%20clono%20repo%26lt%3B%2Ffont%26gt%3B%26lt%3B%2Fh1%26gt%3B%26lt%3Bp%26gt%3B%26lt%3Bspan%26gt%3Bapro%20vscode%20e%20clono%20repo%26lt%3B%2Fspan%26gt%3B%26lt%3Bbr%26gt%3B%26lt%3B%2Fp%26gt%3B%26lt%3Bp%26gt%3Bcreo%20file%20env%20e%20genero%20la%20key%3A%26lt%3Bspan%26gt%3B%26lt%3Bbr%26gt%3B%26lt%3B%2Fspan%26gt%3B%26lt%3B%2Fp%26gt%3B%26lt%3Bp%26gt%3B%26lt%3Bfont%20color%3D%26quot%3B%23ffff00%26quot%3B%26gt%3Bphp%20artisan%20key%3Agenerate%26lt%3B%2Ffont%26gt%3B%26lt%3Bbr%26gt%3B%26lt%3B%2Fp%26gt%3B%26lt%3Bp%26gt%3Bcreo%20db%26lt%3B%2Fp%26gt%3B%26lt%3Bp%26gt%3Bmodifico%20file%20env%20con%20impostazioni%20mie%26lt%3B%2Fp%26gt%3B%26lt%3Bp%26gt%3B%26lt%3Bspan%26gt%3Binstallo%20i%20pacchetti%20necessari%3A%26lt%3B%2Fspan%26gt%3B%26lt%3B%2Fp%26gt%3B%26lt%3Bp%26gt%3B%26lt%3Bspan%26gt%3B%26lt%3Bfont%20color%3D%26quot%3B%23ffff00%26quot%3B%26gt%3Bcomposer%20install%26lt%3B%2Ffont%26gt%3B%26lt%3B%2Fspan%26gt%3B%26lt%3B%2Fp%26gt%3B%26lt%3Bp%26gt%3B%26lt%3Bspan%26gt%3Binstallo%20pacchetti%20node%3A%20%26lt%3B%2Fspan%26gt%3B%26lt%3Bfont%20color%3D%26quot%3B%23ffff00%26quot%3B%26gt%3Bnpm%20install%26lt%3B%2Ffont%26gt%3B%26lt%3Bbr%26gt%3B%26lt%3B%2Fp%26gt%3B%26lt%3Bp%26gt%3B%26lt%3Bspan%26gt%3Blancio%20%26lt%3B%2Fspan%26gt%3B%26lt%3Bfont%20color%3D%26quot%3B%23ffff00%26quot%3B%26gt%3Bphp%20artisan%20serve%26lt%3B%2Ffont%26gt%3B%26lt%3Bspan%26gt%3B%20e%20verifico%20che%20tutto%20funzioni%26lt%3B%2Fspan%26gt%3B%26lt%3Bbr%26gt%3B%26lt%3B%2Fp%26gt%3B%26lt%3Bp%26gt%3Bcreo%20eventuale%20branch%20su%20git%26lt%3B%2Fp%26gt%3B%26lt%3Bp%26gt%3B%26lt%3Bfont%20color%3D%26quot%3B%23ffff00%26quot%3B%26gt%3B%26lt%3Bbr%26gt%3B%26lt%3B%2Ffont%26gt%3B%26lt%3B%2Fp%26gt%3B%22%20style%3D%22text%3Bhtml%3D1%3BstrokeColor%3D%23FFFFFF%3BfillColor%3Dnone%3Bspacing%3D5%3BspacingTop%3D-20%3BwhiteSpace%3Dwrap%3Boverflow%3Dhidden%3Brounded%3D0%3BfontSize%3D12%3BfontColor%3D%23FFFFFF%3B%22%20vertex%3D%221%22%20parent%3D%221%22%3E%3CmxGeometry%20x%3D%22450%22%20y%3D%22130%22%20width%3D%22330%22%20height%3D%22320%22%20as%3D%22geometry%22%2F%3E%3C%2FmxCell%3E%3C%2Froot%3E%3C%2FmxGraphModel%&lt;br&gt;&lt;/span&gt;" style="text;html=1;strokeColor=#FFFFFF;fillColor=none;spacing=5;spacingTop=-20;whiteSpace=wrap;overflow=hidden;rounded=0;fontSize=12;fontColor=#FFFFFF;" parent="1" vertex="1">
                    <mxGeometry x="12.5" y="5430" width="480" height="120" as="geometry"/>
                </mxCell>
                <mxCell id="YnNii3DhfhroFcoP4JHG-31" value="&lt;b&gt;Esempio metodo index di un controller&lt;br&gt;con namespace Admin:&lt;br&gt;&lt;br&gt;&lt;/b&gt;&lt;div style=&quot;font-size: 10px&quot;&gt;&lt;div&gt;public function index(){&lt;span&gt;&amp;nbsp; &amp;nbsp; &amp;nbsp;&lt;/span&gt;&lt;/div&gt;&lt;div&gt;&amp;nbsp; &amp;nbsp; &amp;nbsp; &amp;nbsp; $posts = Post::all();&lt;/div&gt;&lt;div&gt;&amp;nbsp; &amp;nbsp; &amp;nbsp; &amp;nbsp; return view('admin.posts.index', compact('posts'));&lt;/div&gt;&lt;div&gt;&amp;nbsp; &amp;nbsp; }&lt;/div&gt;&lt;/div&gt;" style="text;html=1;strokeColor=#B09500;fillColor=#e3c800;align=left;verticalAlign=middle;whiteSpace=wrap;rounded=0;fontFamily=Helvetica;fontSize=10;fontColor=#000000;" parent="1" vertex="1">
                    <mxGeometry x="540" y="3590" width="280" height="190" as="geometry"/>
                </mxCell>
                <mxCell id="YnNii3DhfhroFcoP4JHG-32" value="&lt;div style=&quot;text-align: left ; font-size: 10px&quot;&gt;&lt;br&gt;&lt;/div&gt;&lt;div style=&quot;text-align: left ; font-size: 10px&quot;&gt;&lt;b&gt;Abilitare mass assignement nel model:&lt;/b&gt;&lt;/div&gt;&lt;div style=&quot;text-align: left ; font-size: 10px&quot;&gt;&lt;span&gt;//per singoli campi&lt;/span&gt;&lt;br&gt;&lt;/div&gt;&lt;div style=&quot;text-align: left ; font-size: 10px&quot;&gt;protectd $fillable['name', 'description'];&lt;span&gt;&lt;br&gt;&lt;/span&gt;&lt;/div&gt;&lt;div style=&quot;text-align: left ; font-size: 10px&quot;&gt;&lt;br&gt;&lt;/div&gt;&lt;div style=&quot;text-align: left ; font-size: 10px&quot;&gt;//per tutti i campi&lt;/div&gt;&lt;div style=&quot;text-align: left ; font-size: 10px&quot;&gt;protected $guarded=[];&lt;/div&gt;&lt;div style=&quot;text-align: left ; font-size: 10px&quot;&gt;&lt;br&gt;&lt;/div&gt;&lt;div style=&quot;text-align: left ; font-size: 10px&quot;&gt;&lt;b&gt;Specificare nome tabella nel model:&lt;/b&gt;&lt;br&gt;&lt;/div&gt;&lt;div style=&quot;text-align: left ; font-size: 10px&quot;&gt;protected $table='nome_tabella';&lt;/div&gt;&lt;div style=&quot;text-align: left ; font-size: 10px&quot;&gt;&lt;br&gt;&lt;/div&gt;&lt;div style=&quot;text-align: left ; font-size: 10px&quot;&gt;&lt;br&gt;&lt;/div&gt;" style="text;html=1;strokeColor=#B09500;fillColor=#e3c800;align=center;verticalAlign=middle;whiteSpace=wrap;rounded=0;fontSize=10;fontColor=#000000;" parent="1" vertex="1">
                    <mxGeometry x="560" y="3250" width="260" height="120" as="geometry"/>
                </mxCell>
                <mxCell id="50" style="edgeStyle=none;html=1;exitX=0.5;exitY=0;exitDx=0;exitDy=0;entryX=0.5;entryY=0;entryDx=0;entryDy=0;fontColor=#FFFFFF;" parent="1" source="25" target="49" edge="1">
                    <mxGeometry relative="1" as="geometry"/>
                </mxCell>
                <mxCell id="25" value="&lt;h1&gt;modifiche scaffolding&lt;/h1&gt;&lt;div&gt;cancellare HomeController di Laravel&lt;/div&gt;&lt;div&gt;&lt;br&gt;&lt;/div&gt;&lt;div&gt;creiamo un nostro controller HomeController dentro una cartella Admin = namespace&lt;/div&gt;&lt;div&gt;&lt;font color=&quot;#ffff00&quot;&gt;php artisan make:controller Admin/HomeController&lt;/font&gt;&lt;/div&gt;&lt;div&gt;&lt;font color=&quot;#ffff00&quot;&gt;&lt;br&gt;&lt;/font&gt;&lt;/div&gt;&lt;div&gt;creare cartella admin dentro view e spostare home.blade.php dentro admin&lt;/div&gt;&lt;div&gt;&lt;br&gt;&lt;/div&gt;&lt;div&gt;creare function index nel HomeController e ritornare view admin.home&lt;/div&gt;&lt;div&gt;&lt;br&gt;&lt;/div&gt;&lt;div&gt;modificare le rotte&amp;nbsp;&lt;/div&gt;&lt;div&gt;cancellare &lt;span&gt;&#9;&lt;/span&gt;Route::get (/home, HomeController@index.....&lt;/div&gt;&lt;div&gt;&lt;br&gt;&lt;/div&gt;&lt;div&gt;ragguppiamo le rotte con il middleware&lt;/div&gt;&lt;div&gt;middleware = controllo( eventPreventDefaul)&lt;/div&gt;&lt;div&gt;&lt;br&gt;&lt;/div&gt;&lt;div&gt;aggiungiamo al web.php&lt;/div&gt;&lt;div&gt;&lt;div style=&quot;color: rgb(212 , 212 , 212) ; background-color: rgb(30 , 30 , 30) ; font-family: &amp;#34;consolas&amp;#34; , &amp;#34;courier new&amp;#34; , monospace ; font-size: 14px ; line-height: 19px&quot;&gt;&lt;span style=&quot;color: #569cd6&quot;&gt;use&lt;/span&gt; Illuminate\Support\Facades\&lt;span style=&quot;color: #4ec9b0&quot;&gt;Auth&lt;/span&gt;;&lt;/div&gt;&lt;/div&gt;&lt;div&gt;&lt;br&gt;&lt;/div&gt;&lt;div&gt;modificare il path nel file app/Providers/RouteServiceProvider.php&lt;/div&gt;&lt;div&gt;&lt;font color=&quot;#ffff00&quot;&gt;public const Home = '/admin';&lt;/font&gt;&lt;/div&gt;&lt;div&gt;&lt;br&gt;&lt;/div&gt;&lt;div&gt;mantenere separata la parte amministrativa da quella publica&lt;/div&gt;&lt;div&gt;cartella admin(back-office) + cartella guest(front-office)&lt;/div&gt;&lt;div&gt;&lt;br&gt;&lt;/div&gt;&lt;div&gt;clonare app.scss e chiamarla front.scss&lt;/div&gt;&lt;div&gt;&lt;br&gt;&lt;/div&gt;&lt;div&gt;spostare welcome.blade.php e inserirla dentro cartella guest rinominandola home.blade.php&lt;/div&gt;&lt;div&gt;linkare il css front.css&lt;/div&gt;&lt;div&gt;&lt;br&gt;&lt;/div&gt;&lt;div&gt;aggiungerlo a webpack.mix.js&amp;nbsp;&lt;/div&gt;&lt;div&gt;&lt;div style=&quot;color: rgb(212 , 212 , 212) ; background-color: rgb(30 , 30 , 30) ; font-family: &amp;#34;consolas&amp;#34; , &amp;#34;courier new&amp;#34; , monospace ; font-size: 14px ; line-height: 19px&quot;&gt;&lt;div&gt;&lt;span style=&quot;color: #9cdcfe&quot;&gt;mix&lt;/span&gt;.&lt;span style=&quot;color: #dcdcaa&quot;&gt;js&lt;/span&gt;(&lt;span style=&quot;color: #ce9178&quot;&gt;'resources/js/front.js'&lt;/span&gt;, &lt;span style=&quot;color: #ce9178&quot;&gt;'public/js'&lt;/span&gt;)&lt;/div&gt;&lt;div&gt;&amp;nbsp; &amp;nbsp; .&lt;span style=&quot;color: #dcdcaa&quot;&gt;sass&lt;/span&gt;(&lt;span style=&quot;color: #ce9178&quot;&gt;'resources/sass/front.scss'&lt;/span&gt;, &lt;span style=&quot;color: #ce9178&quot;&gt;'public/css'&lt;/span&gt;).&lt;span style=&quot;color: #dcdcaa&quot;&gt;options&lt;/span&gt;({&lt;/div&gt;&lt;div&gt;&amp;nbsp; &amp;nbsp; &amp;nbsp; &amp;nbsp; &lt;span style=&quot;color: #9cdcfe&quot;&gt;processCssUrls&lt;/span&gt;&lt;span style=&quot;color: #9cdcfe&quot;&gt;:&lt;/span&gt; &lt;span style=&quot;color: #569cd6&quot;&gt;false&lt;/span&gt;&lt;/div&gt;&lt;div&gt;&amp;nbsp; &amp;nbsp; });&lt;/div&gt;&lt;/div&gt;&lt;/div&gt;&lt;div&gt;&lt;br&gt;&lt;/div&gt;&lt;div&gt;in web.php cambiare rotta welcome in guest.home&lt;/div&gt;&lt;div&gt;&lt;br&gt;&lt;/div&gt;&lt;div&gt;in welcome.blade.php&amp;nbsp;&lt;/div&gt;cambio il link che mi porta alla home&lt;br&gt;&lt;div style=&quot;color: rgb(212 , 212 , 212) ; background-color: rgb(30 , 30 , 30) ; font-family: &amp;#34;consolas&amp;#34; , &amp;#34;courier new&amp;#34; , monospace ; font-size: 14px ; line-height: 19px&quot;&gt;&lt;div style=&quot;font-family: &amp;#34;consolas&amp;#34; , &amp;#34;courier new&amp;#34; , monospace ; line-height: 19px&quot;&gt;&lt;span style=&quot;color: rgb(128 , 128 , 128)&quot;&gt;&amp;lt;&lt;/span&gt;&lt;span style=&quot;color: rgb(86 , 156 , 214)&quot;&gt;a&lt;/span&gt;&amp;nbsp;&lt;span style=&quot;color: rgb(156 , 220 , 254)&quot;&gt;href&lt;/span&gt;=&lt;span style=&quot;color: rgb(206 , 145 , 120)&quot;&gt;&quot;&lt;/span&gt;&lt;span style=&quot;color: rgb(220 , 220 , 170)&quot;&gt;{{&lt;/span&gt;&lt;span style=&quot;color: rgb(206 , 145 , 120)&quot;&gt;&amp;nbsp;&lt;/span&gt;&lt;span style=&quot;color: rgb(220 , 220 , 170)&quot;&gt;url&lt;/span&gt;&lt;span style=&quot;color: rgb(206 , 145 , 120)&quot;&gt;('/admin')&amp;nbsp;&lt;/span&gt;&lt;span style=&quot;color: rgb(220 , 220 , 170)&quot;&gt;}}&lt;/span&gt;&lt;span style=&quot;color: rgb(206 , 145 , 120)&quot;&gt;&quot;&lt;/span&gt;&lt;span style=&quot;color: rgb(128 , 128 , 128)&quot;&gt;&amp;gt;&lt;/span&gt;Home&lt;span style=&quot;color: rgb(128 , 128 , 128)&quot;&gt;&amp;lt;/&lt;/span&gt;&lt;span style=&quot;color: rgb(86 , 156 , 214)&quot;&gt;a&lt;/span&gt;&lt;span style=&quot;color: rgb(128 , 128 , 128)&quot;&gt;&amp;gt;&lt;/span&gt;&lt;/div&gt;&lt;/div&gt;&lt;div&gt;&lt;font color=&quot;#ffff00&quot;&gt;&lt;br&gt;&lt;/font&gt;&lt;/div&gt;&lt;div&gt;&lt;div&gt;clonare app.js e rinominarlo front.js&lt;/div&gt;&lt;div&gt;&lt;br&gt;&lt;/div&gt;&lt;div&gt;se voglio le tabelle già create da laravel lancio le migration&lt;/div&gt;&lt;div&gt;&lt;font color=&quot;#ffff00&quot;&gt;php artisan migrate&lt;/font&gt;&lt;/div&gt;&lt;div&gt;&lt;font color=&quot;#ffff00&quot;&gt;&lt;br&gt;&lt;/font&gt;&lt;/div&gt;&lt;div&gt;ora passo alla mia registrazione&lt;/div&gt;&lt;div&gt;&lt;br&gt;&lt;/div&gt;&lt;/div&gt;&lt;div&gt;&lt;div&gt;lanciare i server controllo che tutto funzioni&lt;/div&gt;&lt;/div&gt;&lt;div&gt;&lt;font color=&quot;#ffff00&quot;&gt;&lt;br&gt;&lt;/font&gt;&lt;/div&gt;&lt;div&gt;Pubblicare la repo su GitHub&lt;/div&gt;&lt;div&gt;&lt;br&gt;&lt;/div&gt;&lt;div&gt;aggiungere collaboratori&lt;/div&gt;&lt;div&gt;&lt;font color=&quot;#ffff00&quot;&gt;&lt;br&gt;&lt;/font&gt;&lt;/div&gt;&lt;div&gt;creare issue&lt;/div&gt;&lt;div&gt;&lt;br&gt;&lt;/div&gt;&lt;div&gt;&lt;br&gt;&lt;/div&gt;&lt;div&gt;&lt;font color=&quot;#ffff00&quot;&gt;&lt;br&gt;&lt;/font&gt;&lt;/div&gt;&lt;div&gt;&lt;br&gt;&lt;/div&gt;" style="text;html=1;strokeColor=#FFFFFF;fillColor=none;spacing=5;spacingTop=-20;whiteSpace=wrap;overflow=hidden;rounded=0;fontSize=12;fontColor=#FFFFFF;direction=west;" parent="1" vertex="1">
                    <mxGeometry x="30" y="1120" width="360" height="970" as="geometry"/>
                </mxCell>
                <mxCell id="42" style="edgeStyle=none;html=1;exitX=0;exitY=0.5;exitDx=0;exitDy=0;entryX=-0.025;entryY=0.802;entryDx=0;entryDy=0;entryPerimeter=0;fontColor=#FFFFFF;" parent="1" source="26" target="25" edge="1">
                    <mxGeometry relative="1" as="geometry"/>
                </mxCell>
                <mxCell id="26" value="&lt;div style=&quot;text-align: left ; font-size: 10px&quot;&gt;&lt;br&gt;&lt;/div&gt;&lt;div style=&quot;text-align: left ; font-size: 10px&quot;&gt;&lt;br&gt;&lt;/div&gt;&lt;div style=&quot;text-align: left ; font-size: 10px&quot;&gt;public function index()&lt;span style=&quot;font-size: 10px&quot;&gt;&amp;nbsp;{&lt;/span&gt;&lt;/div&gt;&lt;div style=&quot;text-align: left ; font-size: 10px&quot;&gt;&amp;nbsp; &amp;nbsp; &amp;nbsp; &amp;nbsp; return view('admin.home);&lt;/div&gt;&lt;div style=&quot;text-align: left ; font-size: 10px&quot;&gt;&amp;nbsp; }&lt;/div&gt;&lt;div style=&quot;text-align: left ; font-size: 10px&quot;&gt;&amp;nbsp;&amp;nbsp;&lt;/div&gt;" style="text;html=1;strokeColor=#B09500;fillColor=#e3c800;align=center;verticalAlign=middle;whiteSpace=wrap;rounded=0;fontSize=10;fontColor=#000000;" parent="1" vertex="1">
                    <mxGeometry x="420" y="1280" width="150" height="60" as="geometry"/>
                </mxCell>
                <mxCell id="41" style="edgeStyle=none;html=1;exitX=0;exitY=0.5;exitDx=0;exitDy=0;entryX=-0.014;entryY=0.695;entryDx=0;entryDy=0;entryPerimeter=0;fontColor=#FFFFFF;" parent="1" source="28" target="25" edge="1">
                    <mxGeometry relative="1" as="geometry"/>
                </mxCell>
                <mxCell id="28" value="&lt;div style=&quot;text-align: left ; font-size: 10px&quot;&gt;&lt;div style=&quot;font-size: 12px&quot;&gt;&lt;font&gt;Route::middleware('auth')&lt;/font&gt;&lt;/div&gt;&lt;div style=&quot;font-size: 12px&quot;&gt;&lt;span&gt;&#9;&lt;/span&gt;&lt;span style=&quot;white-space: pre&quot;&gt;&#9;&lt;/span&gt;-&amp;gt;namespace('Admin')&lt;br&gt;&lt;/div&gt;&lt;div style=&quot;font-size: 12px&quot;&gt;&lt;span&gt;&#9;&lt;/span&gt;&lt;span style=&quot;white-space: pre&quot;&gt;&#9;&lt;/span&gt;-&amp;gt;name('admin.')&lt;br&gt;&lt;/div&gt;&lt;div style=&quot;font-size: 12px&quot;&gt;&lt;span&gt;&#9;&lt;/span&gt;&lt;span style=&quot;white-space: pre&quot;&gt;&#9;&lt;/span&gt;-&amp;gt;prefix('admin')&lt;br&gt;&lt;/div&gt;&lt;div style=&quot;font-size: 12px&quot;&gt;&lt;span&gt;&#9;&lt;/span&gt;&lt;span style=&quot;white-space: pre&quot;&gt;&#9;&lt;/span&gt;-&amp;gt;group(function () {&lt;br&gt;&lt;/div&gt;&lt;div style=&quot;font-size: 12px&quot;&gt;&lt;span style=&quot;white-space: pre&quot;&gt;&#9;&lt;/span&gt;Route::get('/', 'HomeController@index')-&amp;gt;name('home');&lt;br&gt;&lt;/div&gt;&lt;div style=&quot;font-size: 12px&quot;&gt;});&lt;/div&gt;&lt;div&gt;&lt;font color=&quot;#ffff00&quot;&gt;&lt;br&gt;&lt;/font&gt;&lt;/div&gt;&lt;/div&gt;" style="text;html=1;strokeColor=#FFFF00;fillColor=#e3c800;align=center;verticalAlign=middle;whiteSpace=wrap;rounded=0;fontSize=10;fontColor=#000000;" parent="1" vertex="1">
                    <mxGeometry x="420" y="1360" width="334" height="120" as="geometry"/>
                </mxCell>
                <mxCell id="44" style="edgeStyle=none;html=1;exitX=0;exitY=0.5;exitDx=0;exitDy=0;entryX=-0.011;entryY=0.488;entryDx=0;entryDy=0;entryPerimeter=0;fontColor=#FFFFFF;" parent="1" source="38" target="25" edge="1">
                    <mxGeometry relative="1" as="geometry"/>
                </mxCell>
                <mxCell id="38" value="&lt;div style=&quot;text-align: left ; font-size: 10px&quot;&gt;&amp;lt;link href=&quot;{{ asset('css/front.css') }}&quot; rel=&quot;stylesheet&quot;&amp;gt;&lt;/div&gt;" style="text;html=1;strokeColor=#B09500;fillColor=#e3c800;align=center;verticalAlign=middle;whiteSpace=wrap;rounded=0;fontSize=10;fontColor=#000000;" parent="1" vertex="1">
                    <mxGeometry x="420" y="1590" width="300" height="50" as="geometry"/>
                </mxCell>
                <mxCell id="46" value="&lt;h1&gt;creare issue&lt;/h1&gt;&lt;div&gt;creazione model movie relative migration con i vari campi&lt;/div&gt;&lt;div&gt;&lt;br&gt;&lt;/div&gt;&lt;div&gt;modifiche template base creare file index,edit,show,create per il controller&lt;/div&gt;&lt;div&gt;&lt;br&gt;&lt;/div&gt;&lt;div&gt;creare il routing tornare view&lt;/div&gt;&lt;div&gt;&lt;br&gt;&lt;/div&gt;&lt;div&gt;creare il resource controller&lt;/div&gt;" style="text;html=1;strokeColor=default;fillColor=none;spacing=5;spacingTop=-20;whiteSpace=wrap;overflow=hidden;rounded=0;fontSize=16;fontColor=#FFFFFF;container=1;" parent="1" vertex="1">
                    <mxGeometry x="450" y="1810" width="500" height="280" as="geometry"/>
                </mxCell>
                <mxCell id="59" style="edgeStyle=none;html=1;exitX=0.5;exitY=1;exitDx=0;exitDy=0;entryX=0.359;entryY=-0.015;entryDx=0;entryDy=0;entryPerimeter=0;fontSize=13;fontColor=#66CC00;" parent="1" source="49" target="12" edge="1">
                    <mxGeometry relative="1" as="geometry"/>
                </mxCell>
                <mxCell id="49" value="&lt;h1&gt;inizio progetto&lt;/h1&gt;&lt;div style=&quot;font-size: 13px&quot;&gt;&lt;font style=&quot;font-size: 13px&quot;&gt;creare rotta di &lt;font color=&quot;#ffff00&quot; style=&quot;font-size: 13px&quot;&gt;fallback&amp;nbsp;&lt;/font&gt;cancello rotta statica&lt;/font&gt;&lt;/div&gt;&lt;div style=&quot;font-size: 15px&quot;&gt;&lt;div&gt;&lt;span style=&quot;background-color: rgb(0 , 0 , 0)&quot;&gt;&lt;font style=&quot;font-size: 15px&quot;&gt;&lt;span style=&quot;color: rgb(78 , 201 , 176)&quot;&gt;Route&lt;/span&gt;::&lt;span style=&quot;color: rgb(220 , 220 , 170)&quot;&gt;get&lt;/span&gt;(&lt;span style=&quot;color: rgb(206 , 145 , 120)&quot;&gt;'/'&lt;/span&gt;,&amp;nbsp;&lt;span style=&quot;color: rgb(86 , 156 , 214)&quot;&gt;function&lt;/span&gt;&amp;nbsp;() {&lt;/font&gt;&lt;/span&gt;&lt;/div&gt;&lt;div&gt;&lt;span style=&quot;background-color: rgb(0 , 0 , 0)&quot;&gt;&lt;font style=&quot;font-size: 15px&quot;&gt;&amp;nbsp; &amp;nbsp;&amp;nbsp;&lt;span style=&quot;color: rgb(197 , 134 , 192)&quot;&gt;return&lt;/span&gt;&amp;nbsp;&lt;span style=&quot;color: rgb(220 , 220 , 170)&quot;&gt;view&lt;/span&gt;(&lt;span style=&quot;color: rgb(206 , 145 , 120)&quot;&gt;'guest.home'&lt;/span&gt;);&lt;/font&gt;&lt;/span&gt;&lt;/div&gt;&lt;div&gt;&lt;span style=&quot;background-color: rgb(0 , 0 , 0)&quot;&gt;&lt;font style=&quot;font-size: 15px&quot;&gt;});&lt;/font&gt;&lt;/span&gt;&lt;/div&gt;&lt;div&gt;&lt;font style=&quot;font-size: 15px&quot;&gt;&lt;br style=&quot;color: rgb(212 , 212 , 212) ; font-family: &amp;#34;consolas&amp;#34; , &amp;#34;courier new&amp;#34; , monospace ; background-color: rgb(30 , 30 , 30)&quot;&gt;&lt;/font&gt;&lt;/div&gt;&lt;/div&gt;&lt;div&gt;&lt;font style=&quot;font-size: 13px&quot;&gt;creare in js cartella view e il file App.vue&lt;/font&gt;&lt;/div&gt;&lt;div&gt;&lt;font style=&quot;font-size: 13px&quot;&gt;&lt;br&gt;&lt;/font&gt;&lt;/div&gt;&lt;div&gt;&lt;font style=&quot;font-size: 13px&quot;&gt;modificare nome di app.js in admin.js e app.scss in admin.scss&lt;/font&gt;&lt;/div&gt;&lt;div&gt;&lt;font style=&quot;font-size: 13px&quot;&gt;modificare file in cui viene richiamato (webpack.mix) e rilanciare &lt;font color=&quot;#ffff00&quot;&gt;npm run watch&lt;/font&gt;&lt;/font&gt;&lt;/div&gt;&lt;div&gt;&lt;font style=&quot;font-size: 13px&quot;&gt;se ancora presenti cancella app.scss e app.js&lt;/font&gt;&lt;/div&gt;&lt;div&gt;&lt;font style=&quot;font-size: 13px&quot;&gt;&lt;br&gt;&lt;/font&gt;&lt;/div&gt;&lt;div&gt;&lt;font style=&quot;font-size: 13px&quot;&gt;rinominare il layout app in admin e correggere dove viene esteso (admin/home.blade - auth/ tutti i file interni )&lt;/font&gt;&lt;/div&gt;&lt;div&gt;&lt;font style=&quot;font-size: 13px&quot;&gt;&lt;br&gt;&lt;/font&gt;&lt;/div&gt;&lt;div&gt;&lt;font style=&quot;font-size: 13px&quot;&gt;in admin.blade correggere lo script app.js in admin.js e app.css in admin.css&lt;/font&gt;&lt;/div&gt;&lt;div&gt;&lt;font style=&quot;font-size: 13px&quot;&gt;&lt;br&gt;&lt;/font&gt;&lt;/div&gt;&lt;div&gt;&lt;font style=&quot;font-size: 13px&quot;&gt;in guest/ home.blade aggiungere lo script&lt;/font&gt;&lt;/div&gt;&lt;div&gt;&lt;font style=&quot;font-size: 13px&quot;&gt;&lt;div style=&quot;color: rgb(212 , 212 , 212) ; background-color: rgb(30 , 30 , 30) ; font-family: &amp;#34;consolas&amp;#34; , &amp;#34;courier new&amp;#34; , monospace ; font-size: 14px ; line-height: 19px&quot;&gt;&lt;span style=&quot;color: #808080&quot;&gt;&amp;lt;&lt;/span&gt;&lt;span style=&quot;color: #569cd6&quot;&gt;script&lt;/span&gt; &lt;span style=&quot;color: #9cdcfe&quot;&gt;src&lt;/span&gt;=&lt;span style=&quot;color: #ce9178&quot;&gt;&quot;&lt;/span&gt;&lt;span style=&quot;font-family: &amp;#34;consolas&amp;#34; , &amp;#34;courier new&amp;#34; , monospace ; color: rgb(220 , 220 , 170)&quot;&gt;{{&lt;/span&gt;&lt;span style=&quot;font-family: &amp;#34;consolas&amp;#34; , &amp;#34;courier new&amp;#34; , monospace ; color: rgb(220 , 220 , 170)&quot;&gt;asset&lt;/span&gt;&lt;span style=&quot;font-family: &amp;#34;consolas&amp;#34; , &amp;#34;courier new&amp;#34; , monospace ; color: rgb(206 , 145 , 120)&quot;&gt;('js/front.js')&lt;/span&gt;&lt;span style=&quot;font-family: &amp;#34;consolas&amp;#34; , &amp;#34;courier new&amp;#34; , monospace ; color: rgb(220 , 220 , 170)&quot;&gt;}}&lt;/span&gt;&lt;span style=&quot;color: rgb(206 , 145 , 120)&quot;&gt;&quot;&lt;/span&gt;&lt;span style=&quot;color: rgb(128 , 128 , 128)&quot;&gt;&amp;gt;&amp;lt;/&lt;/span&gt;&lt;span style=&quot;color: rgb(86 , 156 , 214)&quot;&gt;script&lt;/span&gt;&lt;span style=&quot;color: rgb(128 , 128 , 128)&quot;&gt;&amp;gt;&lt;/span&gt;&lt;br&gt;&lt;/div&gt;&lt;/font&gt;&lt;/div&gt;&lt;div&gt;&lt;font style=&quot;font-size: 13px&quot;&gt;e aggiungere vue&lt;/font&gt;&lt;/div&gt;&lt;div&gt;&lt;font style=&quot;font-size: 13px&quot;&gt;&lt;div style=&quot;color: rgb(212 , 212 , 212) ; background-color: rgb(30 , 30 , 30) ; font-family: &amp;#34;consolas&amp;#34; , &amp;#34;courier new&amp;#34; , monospace ; font-size: 14px ; line-height: 19px&quot;&gt;&lt;span style=&quot;color: #808080&quot;&gt;&amp;lt;&lt;/span&gt;&lt;span style=&quot;color: #569cd6&quot;&gt;div&lt;/span&gt; &lt;span style=&quot;color: #9cdcfe&quot;&gt;id&lt;/span&gt;=&lt;span style=&quot;color: #ce9178&quot;&gt;&quot;root&quot;&lt;/span&gt;&lt;span style=&quot;color: #808080&quot;&gt;&amp;gt;&amp;lt;/&lt;/span&gt;&lt;span style=&quot;color: #569cd6&quot;&gt;div&lt;/span&gt;&lt;span style=&quot;color: #808080&quot;&gt;&amp;gt;&lt;/span&gt;&lt;/div&gt;&lt;/font&gt;&lt;/div&gt;&lt;div&gt;&lt;font style=&quot;font-size: 13px&quot;&gt;&lt;br&gt;&lt;/font&gt;&lt;/div&gt;&lt;div&gt;&lt;font style=&quot;font-size: 13px&quot;&gt;modifico il front.js commentando questa riga&lt;/font&gt;&lt;/div&gt;&lt;div&gt;&lt;font style=&quot;font-size: 13px&quot;&gt;e inizializzo la nuova instanza di vue importandomi App.vue&lt;/font&gt;&lt;/div&gt;&lt;div&gt;&lt;font style=&quot;font-size: 13px&quot;&gt;&lt;div style=&quot;color: rgb(212 , 212 , 212) ; background-color: rgb(30 , 30 , 30) ; font-family: &amp;#34;consolas&amp;#34; , &amp;#34;courier new&amp;#34; , monospace ; font-size: 14px ; line-height: 19px&quot;&gt;&lt;span style=&quot;color: #c586c0&quot;&gt;import&lt;/span&gt; &lt;span style=&quot;color: #9cdcfe&quot;&gt;App&lt;/span&gt; &lt;span style=&quot;color: #c586c0&quot;&gt;from&lt;/span&gt; &lt;span style=&quot;color: #ce9178&quot;&gt;'./views/App'&lt;/span&gt;;&lt;/div&gt;&lt;/font&gt;&lt;/div&gt;&lt;div&gt;&lt;font style=&quot;font-size: 13px&quot;&gt;&lt;div style=&quot;color: rgb(212 , 212 , 212) ; background-color: rgb(30 , 30 , 30) ; font-family: &amp;#34;consolas&amp;#34; , &amp;#34;courier new&amp;#34; , monospace ; font-size: 14px ; line-height: 19px&quot;&gt;&lt;div&gt;&lt;span style=&quot;color: #569cd6&quot;&gt;const&lt;/span&gt; &lt;span style=&quot;color: #4fc1ff&quot;&gt;app&lt;/span&gt; = &lt;span style=&quot;color: #569cd6&quot;&gt;new&lt;/span&gt; &lt;span style=&quot;color: #4ec9b0&quot;&gt;Vue&lt;/span&gt;({&lt;/div&gt;&lt;div&gt;&amp;nbsp; &amp;nbsp; &lt;span style=&quot;color: #9cdcfe&quot;&gt;el&lt;/span&gt;&lt;span style=&quot;color: #9cdcfe&quot;&gt;:&lt;/span&gt; &lt;span style=&quot;color: #ce9178&quot;&gt;'#root'&lt;/span&gt;,&lt;/div&gt;&lt;div&gt;&amp;nbsp; &amp;nbsp; &lt;span style=&quot;color: #dcdcaa&quot;&gt;render&lt;/span&gt;&lt;span style=&quot;color: #9cdcfe&quot;&gt;:&lt;/span&gt;&lt;span style=&quot;color: #dcdcaa&quot;&gt;h&lt;/span&gt; &lt;span style=&quot;color: #569cd6&quot;&gt;=&amp;gt;&lt;/span&gt; &lt;span style=&quot;color: #dcdcaa&quot;&gt;h&lt;/span&gt;(&lt;span style=&quot;color: #9cdcfe&quot;&gt;App&lt;/span&gt;),&lt;/div&gt;&lt;div&gt;});&lt;/div&gt;&lt;/div&gt;&lt;/font&gt;&lt;/div&gt;&lt;div style=&quot;font-size: 15px&quot;&gt;&lt;span&gt;&lt;br&gt;&lt;/span&gt;&lt;/div&gt;&lt;div&gt;&lt;font style=&quot;font-size: 13px&quot;&gt;crea template in App.vue e vari componenti&lt;/font&gt;&lt;/div&gt;&lt;div&gt;&lt;font style=&quot;font-size: 13px&quot;&gt;creare in sass cartella partials e dentro cartella admin e guest&lt;/font&gt;&lt;/div&gt;&lt;div&gt;&lt;font style=&quot;font-size: 13px&quot;&gt;&lt;br&gt;&lt;/font&gt;&lt;/div&gt;&lt;div&gt;&lt;font style=&quot;font-size: 13px&quot;&gt;&lt;br&gt;&lt;/font&gt;&lt;/div&gt;&lt;div&gt;&lt;font style=&quot;font-size: 13px&quot;&gt;&lt;br&gt;&lt;/font&gt;&lt;/div&gt;&lt;div&gt;&lt;br&gt;&lt;/div&gt;&lt;div&gt;&lt;font style=&quot;font-size: 13px&quot;&gt;&lt;br&gt;&lt;/font&gt;&lt;/div&gt;&lt;div&gt;&lt;span&gt;&lt;br&gt;&lt;/span&gt;&lt;/div&gt;&lt;div&gt;&lt;span&gt;&lt;br&gt;&lt;/span&gt;&lt;/div&gt;&lt;div&gt;&lt;span&gt;&lt;br&gt;&lt;/span&gt;&lt;/div&gt;" style="text;html=1;strokeColor=default;fillColor=none;spacing=5;spacingTop=-20;whiteSpace=wrap;overflow=hidden;rounded=0;fontSize=16;fontColor=#FFFFFF;container=1;" parent="1" vertex="1">
                    <mxGeometry x="20" y="2170" width="380" height="730" as="geometry"/>
                </mxCell>
                <mxCell id="53" style="edgeStyle=none;html=1;exitX=0;exitY=0.5;exitDx=0;exitDy=0;entryX=1.019;entryY=0.144;entryDx=0;entryDy=0;entryPerimeter=0;fontColor=#FFFF00;" parent="1" source="52" target="49" edge="1">
                    <mxGeometry relative="1" as="geometry"/>
                </mxCell>
                <mxCell id="52" value="&lt;div style=&quot;text-align: left ; font-size: 10px&quot;&gt;Route::get(&quot;{any?}&quot;, function() {&lt;/div&gt;&lt;div style=&quot;text-align: left ; font-size: 10px&quot;&gt;&lt;span style=&quot;white-space: pre&quot;&gt;&#9;&lt;/span&gt;return view(&quot;guest.home&quot;);&lt;br&gt;&lt;/div&gt;&lt;div style=&quot;text-align: left ; font-size: 10px&quot;&gt;})-&amp;gt;where(&quot;any&quot;, &quot;.*&quot;);&lt;/div&gt;" style="text;html=1;strokeColor=#B09500;fillColor=#e3c800;align=center;verticalAlign=middle;whiteSpace=wrap;rounded=0;fontSize=10;fontColor=#000000;" parent="1" vertex="1">
                    <mxGeometry x="450" y="2230" width="190" height="80" as="geometry"/>
                </mxCell>
                <mxCell id="54" value="&lt;div style=&quot;color: rgb(212 , 212 , 212) ; background-color: rgb(30 , 30 , 30) ; font-family: &amp;#34;consolas&amp;#34; , &amp;#34;courier new&amp;#34; , monospace ; font-size: 14px ; line-height: 19px&quot;&gt;&lt;span style=&quot;color: #4ec9b0&quot;&gt;Vue&lt;/span&gt;.&lt;span style=&quot;color: #dcdcaa&quot;&gt;component&lt;/span&gt;(&lt;span style=&quot;color: #ce9178&quot;&gt;'example-component'&lt;/span&gt;, &lt;span style=&quot;color: #dcdcaa&quot;&gt;require&lt;/span&gt;(&lt;/div&gt;" style="text;html=1;align=center;verticalAlign=middle;resizable=0;points=[];autosize=1;strokeColor=none;fillColor=none;fontSize=13;fontColor=#FFFFFF;" parent="1" vertex="1">
                    <mxGeometry x="450" y="2670" width="350" height="20" as="geometry"/>
                </mxCell>
                <mxCell id="55" value="" style="endArrow=classic;html=1;fontSize=13;fontColor=#FFFFFF;entryX=-0.007;entryY=0.6;entryDx=0;entryDy=0;entryPerimeter=0;" parent="1" target="54" edge="1">
                    <mxGeometry width="50" height="50" relative="1" as="geometry">
                        <mxPoint x="350" y="2682" as="sourcePoint"/>
                        <mxPoint x="500" y="2660" as="targetPoint"/>
                    </mxGeometry>
                </mxCell>
                <mxCell id="57" value="&lt;font color=&quot;#66cc00&quot;&gt;renderizzo App dall'avvio di Vue&lt;/font&gt;" style="text;html=1;align=center;verticalAlign=middle;resizable=0;points=[];autosize=1;strokeColor=none;fillColor=none;fontSize=13;fontColor=#FFFFFF;" parent="1" vertex="1">
                    <mxGeometry x="460" y="2750" width="200" height="20" as="geometry"/>
                </mxCell>
                <mxCell id="58" value="" style="endArrow=classic;html=1;fontSize=13;fontColor=#FFFFFF;exitX=0.01;exitY=0.5;exitDx=0;exitDy=0;exitPerimeter=0;" parent="1" source="57" edge="1">
                    <mxGeometry width="50" height="50" relative="1" as="geometry">
                        <mxPoint x="420" y="2770" as="sourcePoint"/>
                        <mxPoint x="430" y="2760" as="targetPoint"/>
                    </mxGeometry>
                </mxCell>
                <mxCell id="62" value="&lt;div style=&quot;text-align: left ; font-size: 10px&quot;&gt;&lt;div style=&quot;color: rgb(212 , 212 , 212) ; background-color: rgb(30 , 30 , 30) ; font-family: &amp;#34;consolas&amp;#34; , &amp;#34;courier new&amp;#34; , monospace ; font-size: 14px ; line-height: 19px&quot;&gt;&lt;div&gt;&lt;span style=&quot;color: #569cd6&quot;&gt;@extends&lt;/span&gt;(&lt;span style=&quot;color: #ce9178&quot;&gt;'layouts.admin'&lt;/span&gt;)&lt;/div&gt;&lt;br&gt;&lt;div&gt;&lt;span style=&quot;color: #569cd6&quot;&gt;@section&lt;/span&gt;(&lt;span style=&quot;color: #ce9178&quot;&gt;'content'&lt;/span&gt;)&lt;/div&gt;&lt;div&gt;&amp;nbsp; &amp;nbsp; &lt;/div&gt;&lt;div&gt;&lt;span style=&quot;color: #569cd6&quot;&gt;@endsection&lt;/span&gt;&lt;/div&gt;&lt;/div&gt;&lt;/div&gt;" style="text;html=1;strokeColor=#B09500;fillColor=#000000;align=center;verticalAlign=middle;whiteSpace=wrap;rounded=0;fontSize=10;fontColor=#000000;" parent="1" vertex="1">
                    <mxGeometry x="610" y="4710" width="200" height="110" as="geometry"/>
                </mxCell>
                <mxCell id="67" value="&lt;div style=&quot;color: rgb(212 , 212 , 212) ; background-color: rgb(30 , 30 , 30) ; font-family: &amp;#34;consolas&amp;#34; , &amp;#34;courier new&amp;#34; , monospace ; font-size: 14px ; line-height: 19px&quot;&gt;&lt;span style=&quot;color: #569cd6&quot;&gt;use&lt;/span&gt; Faker\&lt;span style=&quot;color: #4ec9b0&quot;&gt;Generator&lt;/span&gt; &lt;span style=&quot;color: #569cd6&quot;&gt;as&lt;/span&gt; Faker;&lt;/div&gt;&lt;div style=&quot;color: rgb(212 , 212 , 212) ; background-color: rgb(30 , 30 , 30) ; font-family: &amp;#34;consolas&amp;#34; , &amp;#34;courier new&amp;#34; , monospace ; font-size: 14px ; line-height: 19px&quot;&gt;&lt;span style=&quot;color: rgb(86 , 156 , 214)&quot;&gt;use&lt;/span&gt; App\&lt;span style=&quot;color: rgb(78 , 201 , 176)&quot;&gt;Car&lt;/span&gt;;&lt;/div&gt;" style="text;html=1;align=center;verticalAlign=middle;resizable=0;points=[];autosize=1;strokeColor=none;fillColor=none;fontSize=13;fontColor=#FFFFFF;" parent="1" vertex="1">
                    <mxGeometry x="600" y="4950" width="240" height="40" as="geometry"/>
                </mxCell>
                <mxCell id="69" value="&lt;h1 style=&quot;font-size: 19px&quot;&gt;&lt;font style=&quot;font-size: 19px&quot;&gt;Funzionalità del controller&lt;/font&gt;&lt;/h1&gt;&lt;div style=&quot;font-size: 13px&quot;&gt;nella index mi prendo tutti gli elementi dal Model&amp;nbsp;&lt;/div&gt;&lt;div style=&quot;font-size: 13px&quot;&gt;e li ritorno con la funzione compact&lt;/div&gt;&lt;div style=&quot;font-size: 13px&quot;&gt;&lt;br&gt;&lt;/div&gt;&lt;div style=&quot;font-size: 13px&quot;&gt;modificare la show con la dependence injection Model $variabile come argomento&lt;/div&gt;&lt;div style=&quot;font-size: 13px&quot;&gt;&lt;br&gt;&lt;/div&gt;&lt;div style=&quot;font-size: 13px&quot;&gt;modificare la store per salvare i dati&lt;/div&gt;&lt;div style=&quot;font-size: 13px&quot;&gt;&lt;br&gt;&lt;/div&gt;&lt;div style=&quot;font-size: 13px&quot;&gt;&lt;div style=&quot;color: rgb(212 , 212 , 212) ; background-color: rgb(30 , 30 , 30) ; font-family: &amp;#34;consolas&amp;#34; , &amp;#34;courier new&amp;#34; , monospace ; font-size: 14px ; line-height: 19px&quot;&gt;&lt;div&gt;&lt;span style=&quot;color: #569cd6&quot;&gt;public&lt;/span&gt; &lt;span style=&quot;color: #569cd6&quot;&gt;function&lt;/span&gt; &lt;span style=&quot;color: #dcdcaa&quot;&gt;store&lt;/span&gt;(&lt;span style=&quot;color: #4ec9b0&quot;&gt;Request&lt;/span&gt; &lt;span style=&quot;color: #9cdcfe&quot;&gt;$request&lt;/span&gt;)&lt;/div&gt;&lt;div&gt;&amp;nbsp; &amp;nbsp; {&lt;/div&gt;&lt;div&gt;&amp;nbsp; &amp;nbsp; &amp;nbsp; &amp;nbsp; &lt;span style=&quot;color: #9cdcfe&quot;&gt;$data&lt;/span&gt; = &lt;span style=&quot;color: #9cdcfe&quot;&gt;$request&lt;/span&gt;-&amp;gt;&lt;span style=&quot;color: #dcdcaa&quot;&gt;all&lt;/span&gt;();&lt;/div&gt;&lt;div&gt;&amp;nbsp; &amp;nbsp; &amp;nbsp; &amp;nbsp; &lt;span style=&quot;color: #dcdcaa&quot;&gt;dd&lt;/span&gt;(&lt;span style=&quot;color: #9cdcfe&quot;&gt;$data&lt;/span&gt;);&lt;/div&gt;&lt;br&gt;&lt;div&gt;&amp;nbsp; &amp;nbsp; &amp;nbsp; &amp;nbsp; &lt;span style=&quot;color: #9cdcfe&quot;&gt;$newCar&lt;/span&gt; = &lt;span style=&quot;color: #569cd6&quot;&gt;new&lt;/span&gt; &lt;span style=&quot;color: #4ec9b0&quot;&gt;Car&lt;/span&gt;();&lt;/div&gt;&lt;div&gt;&amp;nbsp; &amp;nbsp; &amp;nbsp; &amp;nbsp; &lt;span style=&quot;color: #9cdcfe&quot;&gt;$newCar&lt;/span&gt;-&amp;gt;&lt;span style=&quot;color: #9cdcfe&quot;&gt;name&lt;/span&gt; = &lt;span style=&quot;color: #9cdcfe&quot;&gt;$data&lt;/span&gt;[&lt;span style=&quot;color: #ce9178&quot;&gt;'name'&lt;/span&gt;];&lt;/div&gt;&lt;div&gt;&amp;nbsp; &amp;nbsp; &amp;nbsp; &amp;nbsp; &lt;span style=&quot;color: #9cdcfe&quot;&gt;$newCar&lt;/span&gt;-&amp;gt;&lt;span style=&quot;color: #9cdcfe&quot;&gt;model&lt;/span&gt; = &lt;span style=&quot;color: #9cdcfe&quot;&gt;$data&lt;/span&gt;[&lt;span style=&quot;color: #ce9178&quot;&gt;'model'&lt;/span&gt;];&lt;/div&gt;&lt;div&gt;&amp;nbsp; &amp;nbsp; &amp;nbsp; &amp;nbsp; &lt;span style=&quot;color: #9cdcfe&quot;&gt;$newCar&lt;/span&gt;-&amp;gt;&lt;span style=&quot;color: #9cdcfe&quot;&gt;description&lt;/span&gt; = &lt;span style=&quot;color: #9cdcfe&quot;&gt;$data&lt;/span&gt;[&lt;span style=&quot;color: #ce9178&quot;&gt;'description'&lt;/span&gt;];&lt;/div&gt;&lt;div&gt;&amp;nbsp; &amp;nbsp; &amp;nbsp; &amp;nbsp; &lt;span style=&quot;color: #9cdcfe&quot;&gt;$newCar&lt;/span&gt;-&amp;gt;&lt;span style=&quot;color: #9cdcfe&quot;&gt;available&lt;/span&gt; =&lt;span style=&quot;color: #dcdcaa&quot;&gt;isset&lt;/span&gt;(&lt;span style=&quot;color: #9cdcfe&quot;&gt;$data&lt;/span&gt;[&lt;span style=&quot;color: #ce9178&quot;&gt;'available'&lt;/span&gt;]);&lt;/div&gt;&lt;br&gt;&lt;div&gt;&amp;nbsp; &amp;nbsp; &amp;nbsp; &amp;nbsp; &lt;span style=&quot;color: #9cdcfe&quot;&gt;$slug&lt;/span&gt; = &lt;span style=&quot;color: #4ec9b0&quot;&gt;Str&lt;/span&gt;::&lt;span style=&quot;color: #dcdcaa&quot;&gt;of&lt;/span&gt;(&lt;span style=&quot;color: #9cdcfe&quot;&gt;$data&lt;/span&gt;[&lt;span style=&quot;color: #ce9178&quot;&gt;'name'&lt;/span&gt;])-&amp;gt;&lt;span style=&quot;color: #dcdcaa&quot;&gt;slug&lt;/span&gt;(&lt;span style=&quot;color: #ce9178&quot;&gt;&quot;-&quot;&lt;/span&gt;);&lt;/div&gt;&lt;div&gt;&amp;nbsp; &amp;nbsp; &amp;nbsp; &amp;nbsp; &lt;span style=&quot;color: #9cdcfe&quot;&gt;$count&lt;/span&gt; = &lt;span style=&quot;color: #b5cea8&quot;&gt;1&lt;/span&gt;;&lt;/div&gt;&lt;div&gt;&amp;nbsp; &amp;nbsp; &amp;nbsp; &amp;nbsp; &lt;span style=&quot;color: #c586c0&quot;&gt;while&lt;/span&gt;(&lt;span style=&quot;color: #4ec9b0&quot;&gt;Car&lt;/span&gt;::&lt;span style=&quot;color: #dcdcaa&quot;&gt;where&lt;/span&gt;(&lt;span style=&quot;color: #ce9178&quot;&gt;'slug'&lt;/span&gt;, &lt;span style=&quot;color: #9cdcfe&quot;&gt;$slug&lt;/span&gt;)-&amp;gt;&lt;span style=&quot;color: #dcdcaa&quot;&gt;first&lt;/span&gt;()){&lt;/div&gt;&lt;div&gt;&amp;nbsp; &amp;nbsp; &amp;nbsp; &amp;nbsp; &amp;nbsp; &amp;nbsp; &lt;span style=&quot;color: #9cdcfe&quot;&gt;$slug&lt;/span&gt; = &lt;span style=&quot;color: #4ec9b0&quot;&gt;Str&lt;/span&gt;::&lt;span style=&quot;color: #dcdcaa&quot;&gt;of&lt;/span&gt;(&lt;span style=&quot;color: #9cdcfe&quot;&gt;$data&lt;/span&gt;[&lt;span style=&quot;color: #ce9178&quot;&gt;'name'&lt;/span&gt;])-&amp;gt;&lt;span style=&quot;color: #dcdcaa&quot;&gt;slug&lt;/span&gt;(&lt;span style=&quot;color: #ce9178&quot;&gt;&quot;-&quot;&lt;/span&gt;) . &lt;span style=&quot;color: #ce9178&quot;&gt;&quot;-{&lt;/span&gt;&lt;span style=&quot;color: #9cdcfe&quot;&gt;$count&lt;/span&gt;&lt;span style=&quot;color: #ce9178&quot;&gt;}&quot;&lt;/span&gt;;&lt;/div&gt;&lt;div&gt;&amp;nbsp; &amp;nbsp; &amp;nbsp; &amp;nbsp; &amp;nbsp; &amp;nbsp; &lt;span style=&quot;color: #9cdcfe&quot;&gt;$count&lt;/span&gt;++;&lt;/div&gt;&lt;div&gt;&amp;nbsp; &amp;nbsp; &amp;nbsp; &amp;nbsp; }&lt;/div&gt;&lt;div&gt;&amp;nbsp; &amp;nbsp; &amp;nbsp; &amp;nbsp; &lt;span style=&quot;color: #9cdcfe&quot;&gt;$newCar&lt;/span&gt;-&amp;gt;&lt;span style=&quot;color: #9cdcfe&quot;&gt;slug&lt;/span&gt; = &lt;span style=&quot;color: #9cdcfe&quot;&gt;$slug&lt;/span&gt;;&lt;/div&gt;&lt;div&gt;&amp;nbsp; &amp;nbsp; }&lt;/div&gt;&lt;br&gt;&lt;/div&gt;&lt;/div&gt;&lt;div style=&quot;font-size: 13px&quot;&gt;&lt;br&gt;&lt;/div&gt;&lt;div style=&quot;font-size: 13px&quot;&gt;&lt;br&gt;&lt;/div&gt;&lt;div style=&quot;font-size: 13px&quot;&gt;&lt;br&gt;&lt;/div&gt;&lt;div style=&quot;font-size: 13px&quot;&gt;&lt;br&gt;&lt;/div&gt;" style="text;html=1;strokeColor=#FFFFFF;fillColor=none;spacing=5;spacingTop=-20;whiteSpace=wrap;overflow=hidden;rounded=0;fontSize=12;fontColor=#FFFFFF;" parent="1" vertex="1">
                    <mxGeometry x="20" y="3970" width="540" height="650" as="geometry"/>
                </mxCell>
                <mxCell id="70" value="&lt;div style=&quot;color: rgb(212 , 212 , 212) ; background-color: rgb(30 , 30 , 30) ; font-family: &amp;#34;consolas&amp;#34; , &amp;#34;courier new&amp;#34; , monospace ; font-size: 14px ; line-height: 19px&quot;&gt;&lt;span style=&quot;color: #9cdcfe&quot;&gt;$cars&lt;/span&gt; = &lt;span style=&quot;color: #4ec9b0&quot;&gt;Car&lt;/span&gt;::&lt;span style=&quot;color: #dcdcaa&quot;&gt;all&lt;/span&gt;();&lt;/div&gt;" style="text;html=1;align=center;verticalAlign=middle;resizable=0;points=[];autosize=1;strokeColor=none;fillColor=none;fontSize=13;fontColor=#FFFFFF;" parent="1" vertex="1">
                    <mxGeometry x="710" y="3990" width="160" height="20" as="geometry"/>
                </mxCell>
                <mxCell id="72" value="&lt;div style=&quot;color: rgb(212 , 212 , 212) ; background-color: rgb(30 , 30 , 30) ; font-family: &amp;#34;consolas&amp;#34; , &amp;#34;courier new&amp;#34; , monospace ; font-size: 14px ; line-height: 19px&quot;&gt;&lt;span style=&quot;color: #c586c0&quot;&gt;return&lt;/span&gt; &lt;span style=&quot;color: #dcdcaa&quot;&gt;view&lt;/span&gt;(&lt;span style=&quot;color: #ce9178&quot;&gt;'admin.cars.index'&lt;/span&gt;,&lt;span style=&quot;color: #dcdcaa&quot;&gt;compact&lt;/span&gt;(&lt;span style=&quot;color: #ce9178&quot;&gt;'cars'&lt;/span&gt;));&lt;/div&gt;" style="text;html=1;align=center;verticalAlign=middle;resizable=0;points=[];autosize=1;strokeColor=none;fillColor=none;fontSize=13;fontColor=#FFFFFF;" parent="1" vertex="1">
                    <mxGeometry x="710" y="4010" width="380" height="20" as="geometry"/>
                </mxCell>
                <mxCell id="73" value="&lt;div style=&quot;color: rgb(212 , 212 , 212) ; background-color: rgb(30 , 30 , 30) ; font-family: &amp;#34;consolas&amp;#34; , &amp;#34;courier new&amp;#34; , monospace ; font-size: 14px ; line-height: 19px&quot;&gt;&lt;div&gt;&amp;nbsp;&lt;span style=&quot;color: #569cd6&quot;&gt;public&lt;/span&gt; &lt;span style=&quot;color: #569cd6&quot;&gt;function&lt;/span&gt; &lt;span style=&quot;color: #dcdcaa&quot;&gt;show&lt;/span&gt;(&lt;span style=&quot;color: #4ec9b0&quot;&gt;Car&lt;/span&gt; &lt;span style=&quot;color: #9cdcfe&quot;&gt;$car&lt;/span&gt;){&lt;/div&gt;&lt;div&gt;&amp;nbsp; &amp;nbsp; &amp;nbsp; &amp;nbsp; &lt;span style=&quot;color: #c586c0&quot;&gt;return&lt;/span&gt; &lt;span style=&quot;color: #dcdcaa&quot;&gt;view&lt;/span&gt;(&lt;span style=&quot;color: #ce9178&quot;&gt;'admin.cars.show'&lt;/span&gt;, &lt;span style=&quot;color: #dcdcaa&quot;&gt;compact&lt;/span&gt;(&lt;span style=&quot;color: #ce9178&quot;&gt;'car'&lt;/span&gt;));&amp;nbsp; &amp;nbsp; }&lt;/div&gt;&lt;/div&gt;" style="text;html=1;align=center;verticalAlign=middle;resizable=0;points=[];autosize=1;strokeColor=none;fillColor=none;fontSize=13;fontColor=#FFFFFF;" parent="1" vertex="1">
                    <mxGeometry x="700" y="4052" width="480" height="40" as="geometry"/>
                </mxCell>
                <mxCell id="78" value="Model" style="text;html=1;align=center;verticalAlign=middle;resizable=0;points=[];autosize=1;strokeColor=none;fillColor=none;" parent="1" vertex="1">
                    <mxGeometry x="220" y="3020" width="50" height="20" as="geometry"/>
                </mxCell>
                <mxCell id="79" value="Controller" style="text;html=1;align=center;verticalAlign=middle;resizable=0;points=[];autosize=1;strokeColor=none;fillColor=none;" parent="1" vertex="1">
                    <mxGeometry x="275" y="3510" width="70" height="20" as="geometry"/>
                </mxCell>
                <mxCell id="80" value="Template" style="text;html=1;align=center;verticalAlign=middle;resizable=0;points=[];autosize=1;strokeColor=none;fillColor=none;" parent="1" vertex="1">
                    <mxGeometry x="345" y="4640" width="60" height="20" as="geometry"/>
                </mxCell>
                <mxCell id="81" value="Seeder" style="text;html=1;align=center;verticalAlign=middle;resizable=0;points=[];autosize=1;strokeColor=none;fillColor=none;" parent="1" vertex="1">
                    <mxGeometry x="330" y="4950" width="50" height="20" as="geometry"/>
                </mxCell>
                <mxCell id="82" value="Fine Scaffolding" style="text;html=1;align=center;verticalAlign=middle;resizable=0;points=[];autosize=1;strokeColor=none;fillColor=none;" parent="1" vertex="1">
                    <mxGeometry x="210" y="2920" width="100" height="20" as="geometry"/>
                </mxCell>
            </root>
        </mxGraphModel>
    </diagram>
    <diagram id="BvBdxhd0rVTqoUJPIA4A" name="Page-2">
        <mxGraphModel dx="1238" dy="645" grid="1" gridSize="10" guides="1" tooltips="1" connect="1" arrows="1" fold="1" page="1" pageScale="1" pageWidth="827" pageHeight="1169" math="0" shadow="0">
            <root>
                <mxCell id="dGOpuBiseX3lURQI40ha-0"/>
                <mxCell id="dGOpuBiseX3lURQI40ha-1" parent="dGOpuBiseX3lURQI40ha-0"/>
            </root>
        </mxGraphModel>
    </diagram>
</mxfile>